<svg id="Layer_1" data-name="Layer 1" xmlns="http://www.w3.org/2000/svg" width="100" height="100" viewBox="0 0 100 100"><defs><style>.cls-1{fill:#f37;}</style></defs><title>Content writing</title><path class="cls-1" d="M84,16.05a17.21,17.21,0,0,0-24.35,0L15,60.68A2.2,2.2,0,0,0,14.33,62L11,86.45a2.23,2.23,0,0,0,.63,1.88,2.27,2.27,0,0,0,1.58.67,1.51,1.51,0,0,0,.3,0l14.76-2a2.25,2.25,0,1,0-.6-4.45l-11.83,1.6L18.17,67l18,18a2.27,2.27,0,0,0,1.58.67A2.19,2.19,0,0,0,39.31,85L84,40.4a17.2,17.2,0,0,0,0-24.35ZM60.46,21.54,68,29,27.23,69.77l-7.5-7.5ZM37.75,80.27l-7.33-7.33L71.15,32.21l7.33,7.33ZM81.6,36.33,63.67,18.4A12.74,12.74,0,0,1,81.6,36.33Z"/></svg>