<svg id="Layer_1" data-name="Layer 1" xmlns="http://www.w3.org/2000/svg" viewBox="0 0 100 100">
  <defs>
    <style>
      .cls-1 {
        fill: #f37;
      }
    </style>
  </defs>
  <title>Design Support</title>
  <g>
    <path class="cls-1" d="M84,80.49h0a5.17,5.17,0,0,1,0-5.39,27.3,27.3,0,0,0-9-37.55,26.56,26.56,0,0,0-5-2.41,25.59,25.59,0,0,0-3.9-1.1A27.36,27.36,0,1,0,16,53.65,5.2,5.2,0,0,1,16,59l-2.49,4.14a2.33,2.33,0,0,0-.25,1.75,2.29,2.29,0,0,0,2.21,1.71H34.13a26.14,26.14,0,0,0,1.22,3.85A27.76,27.76,0,0,0,61.3,88.07H84.49a2.29,2.29,0,0,0,2.28-2.29,2.31,2.31,0,0,0-.32-1.17Zm-3.49,3H61.26A23.39,23.39,0,0,1,40.12,70.05a22.54,22.54,0,0,1-1.29-3.42A27.94,27.94,0,0,0,66.58,39.72V38.8a21.54,21.54,0,0,1,3.14,1.09,22.76,22.76,0,0,1,10.41,32.8,9.74,9.74,0,0,0,0,10.11ZM19.93,61.36a9.78,9.78,0,0,0,0-10.12A22.72,22.72,0,1,1,62,39.64,23,23,0,0,1,38.59,62.05H19.52Z"/>
    <path class="cls-1" d="M40.76,35c0,.59,0,2.38-5.51,2.61h-.19l-.5.49.89,6.22h4.42l.39-2.17c4.42-.88,6.66-3.31,6.66-7.23,0-4.65-3.44-7.65-8.76-7.65a11.28,11.28,0,0,0-8.75,3.87l-.29.34,3.82,4.18.37-.41a6.52,6.52,0,0,1,4.75-2.19C39.07,33.09,40.76,33.34,40.76,35Z"/>
    <rect class="cls-1" x="34.26" y="46.05" width="6.54" height="6.47"/>
  </g>
</svg>
