<?xml version="1.0" encoding="utf-8"?>
<!-- Generator: Adobe Illustrator 23.0.2, SVG Export Plug-In . SVG Version: 6.00 Build 0)  -->
<svg version="1.1" id="Layer_1" xmlns="http://www.w3.org/2000/svg" xmlns:xlink="http://www.w3.org/1999/xlink" x="0px" y="0px"
	 viewBox="0 0 665.4 182.9" style="enable-background:new 0 0 665.4 182.9;" xml:space="preserve">
<style type="text/css">
	.st0{fill:#FFFFFF;}
</style>
<title>design+ logo</title>
<g>
	<g id="Layer_1-2">
		<g>
			<path class="st0" d="M69.7,49.9c-6-8-15-13.3-27.1-13.3C19,36.7,0,57.4,0,87.7c0,30.1,18.6,51,42.8,51
				c10.5,0.2,20.5-4.5,26.9-12.8v10.5h29.3V0H69.7V49.9z M47.6,110c-11.2,0-20-8.7-20-22.3c0-13.5,8.6-22.3,20-22.3s20,8.9,20,22.3
				C67.6,101.3,59,110,47.6,110z"/>
			<path class="st0" d="M160.3,36.7c-29.5,0-50,22.1-50,51s20.4,51,50.7,51c20.5,0,40.4-10.1,46.9-34.2h-30.2
				c-2.3,7.1-8.8,11-16.7,11c-10.2,0-19.5-6.4-20.9-21.4h69.2C212.3,62,191.7,36.7,160.3,36.7z M141,75.8
				c2.4-9.4,8.6-15.9,19.1-15.9s16.7,6.6,18.6,15.9H141z"/>
			<path class="st0" d="M266.1,72.6c-11.4-2.5-14.1-2.8-14.1-6.2c0-4.3,4.3-6.9,12.9-6.9c9.3,0,13.1,3.2,14.3,7.8h29.6
				c-2.9-18.6-16-30.5-42.8-30.5c-27.4,0-43.8,12.4-43.8,33.5c0,17.2,11.1,24.6,38.1,30.6c16.2,3.5,19.2,4.4,19.2,8.3
				c0,4.1-3.1,6.7-13,6.7c-13.6,0-17.4-5.1-18.6-10.4h-29.7c3.5,20.5,22.3,33.1,48,33.1c24.3,0,43.5-11.2,43.5-33.7
				C309.8,84.8,294.4,79,266.1,72.6z"/>
			<path class="st0" d="M320.1,46.3v92.4h29.3V46.4c-4.6,2-9.6,3-14.7,3C329.7,49.4,324.7,48.4,320.1,46.3z"/>
			<path class="st0" d="M334.8,0c-10,0-17.8,7.3-17.8,17.2c0,10.1,7.8,17.4,17.8,17.4c10.4,0,17.8-7.3,17.8-17.4
				C352.5,7.3,345.1,0,334.8,0z"/>
			<path class="st0" d="M430.4,49.8c-6.4-8.4-16.4-13.3-26.9-13.1c-23.8,0-42.8,20.7-42.8,50.1c0,29.2,18.6,50.1,42.8,50.1
				c10.5,0.2,20.5-4.5,26.9-12.8V136c0,14-6.6,20.2-19.3,20.2c-7.9,0-15.5-2.1-17.8-11.9h-30.2c3.1,26.9,25.7,38.6,48.8,38.6
				c29,0,47.8-19.1,47.8-48V39h-29.3V49.8z M408.3,108.2c-11.2,0-20-8.7-20-21.4c0-12.6,8.6-21.4,20-21.4s20,8.9,20,21.4
				C428.3,99.5,419.7,108.2,408.3,108.2z"/>
			<path class="st0" d="M530.9,36.5c-12,0-21.1,4.7-28.1,13.6V38.8h-30.1v99.9h30.1v-53c0-13.8,6-19.8,17.9-19.8
				c12.2,0,15.4,6.3,15.4,17.3v55.6h30.1V76.2C566.1,51.9,552.8,36.5,530.9,36.5z"/>
			<polygon class="st0" points="636.3,29.8 636.4,0.1 606.5,0 606.4,29.8 577.2,29.7 577.1,58.2 606.3,58.3 606.2,88.2 636.2,88.3 
				636.3,58.3 665.3,58.5 665.4,29.9 			"/>
		</g>
	</g>
</g>
</svg>
