<?xml version="1.0" encoding="utf-8"?>
<!-- Generator: Adobe Illustrator 23.0.2, SVG Export Plug-In . SVG Version: 6.00 Build 0)  -->
<svg version="1.1" id="Layer_1" xmlns="http://www.w3.org/2000/svg" xmlns:xlink="http://www.w3.org/1999/xlink" x="0px" y="0px"
	 viewBox="0 0 665.4 182.9" style="enable-background:new 0 0 665.4 182.9;" xml:space="preserve">
<style type="text/css">
	.st0{fill:#0B0B0B;}
</style>
<title>design+ logo</title>
<g>
	<path class="st0" d="M75.2,51c-5.9-7.8-14.7-13-26.4-13c-23,0-41.6,20.2-41.6,49.7c0,29.3,18.2,49.7,41.7,49.7
		c11.8,0,20.2-5,26.2-12.4v10.2h28.6V2.3H75.2V51z M53.6,109.5c-10.9,0-19.5-8.5-19.5-21.8c0-13.1,8.4-21.8,19.5-21.8
		s19.5,8.6,19.5,21.8C73.1,101.1,64.7,109.5,53.6,109.5z"/>
	<path class="st0" d="M163.5,38c-28.8,0-48.8,21.6-48.8,49.7s19.9,49.7,49.5,49.7c20,0,39.4-9.8,45.8-33.3h-29.4
		c-2.2,6.9-8.6,10.7-16.3,10.7c-9.9,0-19-6.2-20.4-20.9h67.5C214.1,62.7,194.1,38,163.5,38z M144.6,76.2c2.4-9.1,8.4-15.5,18.7-15.5
		s16.3,6.4,18.2,15.5H144.6z"/>
	<path class="st0" d="M266.6,73.1c-11.1-2.4-13.8-2.8-13.8-6c0-4.1,4.2-6.7,12.6-6.7c9.1,0,12.8,3.1,14,7.6h28.9
		c-2.9-18.1-15.6-29.7-41.7-29.7c-26.7,0-42.7,12.1-42.7,32.6c0,16.7,10.8,24,37.2,29.9c15.8,3.5,18.7,4.3,18.7,8.1
		c0,4-3,6.6-12.6,6.6c-13.3,0-17-5-18.2-10.2h-29c3.4,20,21.7,32.3,46.8,32.3c23.7,0,42.4-10.9,42.4-32.8
		C309.2,85,294.2,79.3,266.6,73.1z"/>
	<rect x="319.2" y="45" class="st0" width="28.6" height="92.5"/>
	<path class="st0" d="M333.5,2.3c-9.8,0-17.3,7.1-17.3,16.7c0,9.8,7.6,16.9,17.3,16.9c10.1,0,17.3-7.1,17.3-16.9
		C350.9,9.4,343.6,2.3,333.5,2.3z"/>
	<path class="st0" d="M426.7,50.8c-5.9-7.6-14.6-12.8-26.2-12.8c-23.2,0-41.7,20.2-41.7,48.9c0,28.5,18.2,48.9,41.7,48.9
		c11.8,0,20.2-5,26.2-12.4V135c0,13.6-6.4,19.7-18.8,19.7c-7.7,0-15.1-2.1-17.3-11.6h-29.4c3,26.2,25.1,37.6,47.6,37.6
		c28.3,0,46.6-18.6,46.6-46.8V40.3h-28.6v10.5H426.7z M405.2,107.8c-10.9,0-19.5-8.5-19.5-20.9c0-12.3,8.4-20.9,19.5-20.9
		s19.5,8.6,19.5,20.9C424.7,99.3,416.3,107.8,405.2,107.8z"/>
	<path class="st0" d="M524.7,37.8c-11.7,0-20.5,4.6-27.4,13.3v-11H468v97.3h29.3V85.8c0-13.5,5.9-19.3,17.4-19.3
		c11.9,0,15,6.2,15,16.8v54.2H559V76.6C559,52.9,546.1,37.8,524.7,37.8z"/>
	<polygon class="st0" points="629.6,34 629.7,4.8 600.3,4.7 600.2,33.9 571.5,33.8 571.4,61.9 600.1,62 600,91.4 629.4,91.5 
		629.5,62 658.1,62.1 658.2,34.1 	"/>
</g>
</svg>
