<svg id="Layer_1" data-name="Layer 1" xmlns="http://www.w3.org/2000/svg" viewBox="0 0 600 250">
  <title>Healthalicious</title>
  <g>
    <g>
      <polygon points="118.78 208.73 98.28 208.73 98.28 188.76 87.9 188.76 87.9 238.87 98.28 238.87 98.28 217.25 118.78 217.25 118.78 238.87 129.16 238.87 129.16 188.76 118.78 188.76 118.78 208.73"/>
      <path d="M163.59,210.16q-4.36-5.1-12.17-5.1-7.53,0-12.07,4.77A16.9,16.9,0,0,0,134.84,222a17.52,17.52,0,0,0,4.77,12.67q4.77,5,12.76,5,9.67,0,15-8.59l-6.86-4.33a14.17,14.17,0,0,1-3.81,3.82,8.21,8.21,0,0,1-4.37,1.17,7.73,7.73,0,0,1-6.49-3.19,10.46,10.46,0,0,1-1.65-4.08H168Q168,215.28,163.59,210.16ZM144.3,218q1.72-5.39,6.9-5.39t6.74,5.39Z"/>
      <path d="M199.13,210a14.86,14.86,0,0,0-11-4.92,15.41,15.41,0,0,0-10.56,4,18.65,18.65,0,0,0-1.46,25.22,15.42,15.42,0,0,0,12.13,5.32,14.24,14.24,0,0,0,7.63-2,22.47,22.47,0,0,0,3.23-2.61v3.89H209V205.8h-9.86Zm-1.87,18a8.25,8.25,0,0,1-6.71,3,8.06,8.06,0,0,1-5.47-2,8.18,8.18,0,0,1-2.89-6.5,8.76,8.76,0,0,1,1.87-5.58,8.66,8.66,0,0,1,12.21-1.17,8.32,8.32,0,0,1,3,6.68A8.62,8.62,0,0,1,197.26,227.93Z"/>
      <rect x="215.23" y="184.91" width="9.86" height="53.96"/>
      <polygon points="242.4 195.88 232.53 195.88 232.53 205.79 229.23 205.79 229.23 213.76 232.53 213.76 232.53 238.87 242.4 238.87 242.4 213.76 248.26 213.76 248.26 205.79 242.4 205.79 242.4 195.88"/>
      <path d="M280.24,207.89a11.59,11.59,0,0,0-7.81-2.83q-5.46,0-10.34,4.44V184.91h-9.86v54h9.86V222a9.53,9.53,0,0,1,1.76-6.07,5.8,5.8,0,0,1,4.8-2.23q5.69,0,5.69,7.71v17.44h9.86V220a26.22,26.22,0,0,0-.84-7.62A9.94,9.94,0,0,0,280.24,207.89Z"/>
      <path d="M316.36,210a14.85,14.85,0,0,0-11-4.92,15.37,15.37,0,0,0-10.56,4,18.64,18.64,0,0,0-1.47,25.22,15.42,15.42,0,0,0,12.14,5.32,14.27,14.27,0,0,0,7.63-2,22.47,22.47,0,0,0,3.22-2.61v3.89h9.87V205.8h-9.87Zm-1.87,18a8.25,8.25,0,0,1-6.71,3,8,8,0,0,1-5.46-2,8.19,8.19,0,0,1-2.9-6.5,8.76,8.76,0,0,1,1.87-5.58,8.66,8.66,0,0,1,12.21-1.17,8.29,8.29,0,0,1,3,6.68A8.57,8.57,0,0,1,314.49,227.93Z"/>
      <rect x="332.46" y="184.91" width="9.86" height="53.96"/>
      <path d="M353.21,187.55a5.53,5.53,0,0,0-4.09,1.74,5.8,5.8,0,0,0-1.7,4.17,5.78,5.78,0,0,0,9.84,4.09,5.41,5.41,0,0,0,1.71-4,5.89,5.89,0,0,0-1.67-4.25A5.46,5.46,0,0,0,353.21,187.55Z"/>
      <rect x="348.26" y="205.8" width="9.86" height="33.08"/>
      <path d="M373.12,206.49a16.52,16.52,0,0,0-7.08,5.88,17.65,17.65,0,0,0-3,10.13,17,17,0,0,0,4.4,11.82q4.77,5.33,12.76,5.32a21.28,21.28,0,0,0,8.18-1.76v-9.66a12.89,12.89,0,0,1-7.23,2.76,7.25,7.25,0,0,1-5-2,9.4,9.4,0,0,1-1-12.23,7.16,7.16,0,0,1,5.91-3q3.18,0,7.37,2.61V206.9a22.55,22.55,0,0,0-8.33-1.84A17.16,17.16,0,0,0,373.12,206.49Z"/>
      <rect x="393.8" y="205.8" width="9.86" height="33.08"/>
      <path d="M398.75,187.55a5.53,5.53,0,0,0-4.09,1.74,5.8,5.8,0,0,0-1.7,4.17,5.78,5.78,0,0,0,9.84,4.09,5.41,5.41,0,0,0,1.71-4,5.89,5.89,0,0,0-1.67-4.25A5.48,5.48,0,0,0,398.75,187.55Z"/>
      <path d="M426.88,205.06a19.76,19.76,0,0,0-8,1.65,16.25,16.25,0,0,0-8,6.87,17.19,17.19,0,0,0-2.34,8.84,16.4,16.4,0,0,0,4.84,12,17.9,17.9,0,0,0,13.24,5.17,20.25,20.25,0,0,0,8.28-1.61,16.22,16.22,0,0,0,7.67-6.64,16.53,16.53,0,0,0,2.46-8.74,16.85,16.85,0,0,0-4-11.23A17.72,17.72,0,0,0,426.88,205.06Zm5.75,23.35a7.3,7.3,0,0,1-5.68,2.53,7.66,7.66,0,0,1-6.05-2.72,9.34,9.34,0,0,1,.37-12.11,7.52,7.52,0,0,1,5.61-2.39,7.34,7.34,0,0,1,5.72,2.57,8.9,8.9,0,0,1,2.2,6.13A8.73,8.73,0,0,1,432.63,228.41Z"/>
      <path d="M472.13,222.13q0,4.41-.81,6-1.43,2.83-5.24,2.83a5.37,5.37,0,0,1-5.17-2.79,12.86,12.86,0,0,1-1-5.8V205.8h-9.86v17.47a21.87,21.87,0,0,0,1.34,8.59,11.55,11.55,0,0,0,4.71,5.1,18.86,18.86,0,0,0,10.09,2.64,20.4,20.4,0,0,0,8.61-1.83,11.21,11.21,0,0,0,4.77-3.89q2.38-3.49,2.38-10.54V205.8h-9.86Z"/>
      <path d="M508.62,221.54a28.6,28.6,0,0,0-6.49-2.82,12.71,12.71,0,0,1-3.6-1.71,2.51,2.51,0,0,1-1-2,2.75,2.75,0,0,1,.81-2,2.67,2.67,0,0,1,2-.83c1.4,0,2.53,1,3.41,2.9l7.7-2.57q-3.15-7.44-11.25-7.45a13.44,13.44,0,0,0-6.9,1.76,10.08,10.08,0,0,0-3.83,3.78,10.27,10.27,0,0,0-1.38,5.22,8.79,8.79,0,0,0,3,6.9,18.1,18.1,0,0,0,6,3.05,20.86,20.86,0,0,1,4.38,1.81,2.3,2.3,0,0,1,.9,2,2.47,2.47,0,0,1-.77,1.86,2.62,2.62,0,0,1-1.9.75q-2.86,0-4.66-3.67l-8,2.64a13.81,13.81,0,0,0,4.73,6.48,13.64,13.64,0,0,0,7.78,2,13.82,13.82,0,0,0,7.92-2.12,10.06,10.06,0,0,0,4.58-8.74A8.26,8.26,0,0,0,508.62,221.54Z"/>
    </g>
    <g>
      <path d="M256.67,81.83A39.78,39.78,0,0,1,262.06,41a39.73,39.73,0,0,1,8.73,24,39,39,0,0,1-.43,6.74,47.67,47.67,0,0,0-5.67,10.13h9a39.78,39.78,0,0,1,31-21.35A39.82,39.82,0,0,1,288,88.75l3.25,5h17.54l3.7-5.68a47.79,47.79,0,0,0-10-1.73,47.25,47.25,0,0,0,6-9.38c6.46-3.39,6.29-3.21,6.84-3.63A40.09,40.09,0,0,1,332.07,75a39.31,39.31,0,0,1,12.59,6.8l0,0h10.24a4.1,4.1,0,0,0-1.21-2.91,47.36,47.36,0,0,0-19.07-11.7,48.43,48.43,0,0,0-10.94-2.17A47.59,47.59,0,0,0,334,35.3a4.08,4.08,0,0,0-4.09-4.09,47.48,47.48,0,0,0-29.75,10.37A48.39,48.39,0,0,0,298,30.63,47.56,47.56,0,0,0,286.3,11.56a4.09,4.09,0,0,0-5.79,0,47.63,47.63,0,0,0-12.86,23.32c-.85-1-1.75-2-2.7-2.92a4.11,4.11,0,0,0-5.79,0,48.07,48.07,0,0,0-11.3,49.87Zm55.38-38.2a39.31,39.31,0,0,1,13.55-4,38.82,38.82,0,0,1-4,13.55,40,40,0,0,1-9.29,12,48,48,0,0,0,.84-9,4.09,4.09,0,0,0-4.09-4.09,48.82,48.82,0,0,0-9,.84A40,40,0,0,1,312.05,43.63Zm-34.73-12.5a39.48,39.48,0,0,1,6.09-10.57,39.08,39.08,0,0,1,6.8,12.6A39.91,39.91,0,0,1,291.89,50c-.41.53-.24.36-3.62,6.82a48,48,0,0,0-9.39,6A48.11,48.11,0,0,0,274.67,46,39.52,39.52,0,0,1,277.32,31.13Z"/>
      <path d="M249.86,130.67l7.65.5a16.5,16.5,0,0,1-1-3.21L249,92.71h28.44l7.73,11.92H314.8l7.73-11.92H351l-6.91,32.68h7.19l8.41-39.69h-5.61v0h-7v0H318.59l-7.74,11.9H289.14l-7.73-11.9H253v0h-7v0h-5.6l9.52,45Z"/>
      <path d="M360.75,158.09l-33.18,0v-7.44l33.18,0a2.92,2.92,0,0,0,0-5.84l-33.17,0v-7.44l33.17,0a2.92,2.92,0,1,0,0-5.84l-42.27.05a8.65,8.65,0,0,0-8.62,8.65v.52l-61.59-4a11.17,11.17,0,1,0,0,22.29l61.58-4.18v.52a8.65,8.65,0,0,0,8.64,8.63l42.27-.06a2.92,2.92,0,1,0,0-5.84Zm-112.89-4.9a5.33,5.33,0,1,1,0-10.63l62,4V149Zm70.61,4.95a2.78,2.78,0,0,1-2.79-2.78l0-11.6h0v-3.53a2.81,2.81,0,0,1,2.79-2.8h3.26l0,20.72Z"/>
    </g>
  </g>
</svg>
