<svg id="Layer_1" data-name="Layer 1" xmlns="http://www.w3.org/2000/svg" viewBox="0 0 600 250">
  <title>House of SKaur</title>
  <g>
    <path d="M592.75,132.82a2.53,2.53,0,0,0-1-1.13,2.82,2.82,0,0,0-1.52-.41,3.62,3.62,0,0,0-1.62.45h0l-1,.59-.93.6,0,0-.14.09-.14.09-1,.64c-.39.24-.87.53-1.44.86-1.29.79-3.33,2-6.09,3.55s-6.45,3.55-11,5.91l-1.22.59-1.17.59h0l-1.1.53c-.35.16-.7.34-1,.52h0c-.62.33-1.23.64-1.84.93l-1.92.93-.41.19-.44.18a1.13,1.13,0,0,1-.33.13,1.83,1.83,0,0,0-.32.14,6.81,6.81,0,0,1-.81.34,7.75,7.75,0,0,0-.89.39c-.3.15-.58.28-.85.39l-.85.34q-1.5.63-3.36,1.32c-1.25.45-2.41.84-3.49,1.18a26.29,26.29,0,0,1-2.65.66,17.64,17.64,0,0,1-2.45.29,4.7,4.7,0,0,1-1.09,0c-.3,0-.47-.11-.53-.23a2,2,0,0,1-.16-.86,5.68,5.68,0,0,1,0-.59c0-.28.07-.53.12-.78.11-.6.23-1.16.37-1.68s.27-1,.4-1.55v.05q.57-1.77,1.38-3.84t2-4.76l0,0a6.88,6.88,0,0,0,.37-.73c.13-.3.27-.57.4-.82a1.47,1.47,0,0,1,.18-.38,1.34,1.34,0,0,0,.15-.3l0,.05a3.64,3.64,0,0,1,.2-.39,2.39,2.39,0,0,0,.2-.43l.12-.27a1.57,1.57,0,0,1,.14-.32l.33-.59c.12-.22.23-.41.32-.6a1.12,1.12,0,0,0,.14-.31l-.56-2.91c-.08,0-.23.06-.45.11s-.44.1-.69.16-.47.1-.69.14a3.42,3.42,0,0,1-.44,0l-.08.09c-.06,0-.06,0,0,0a.42.42,0,0,0-.14,0l-.15,0a.79.79,0,0,1-.32.14l-.24,0c-1,.31-2.25.61-3.67.91s-3,.62-4.63,1c-2.22.39-4.34.67-6.38.84s-3.83.25-5.36.25c-.9,0-1.77,0-2.64-.07s-1.67-.1-2.42-.16c-2-.18-3.7-.41-5.19-.7s-2.68-.55-3.6-.8c1,0,1-.16.08-.38s-2.35-.65-4.51-1.34a2.88,2.88,0,0,0-.35-.26,2.71,2.71,0,0,0-1.25-.29h-.19a3.2,3.2,0,0,0-1.41.12,2.55,2.55,0,0,0-1.6,1.46.83.83,0,0,0,0,.15l-.24.21a1.08,1.08,0,0,1-.25.19l0,0a3.74,3.74,0,0,0-.4.32l-.41.36-.7.59-.87.73c-.57.49-1.26,1-2.07,1.64s-1.82,1.35-3,2.23-2.63,1.84-4.35,3-3.59,2.3-5.65,3.48c-1.37.7-2.64,1.35-3.78,2a38.53,38.53,0,0,1-3.79,1.73h0c-.62.24-1.31.48-2.06.7a25.61,25.61,0,0,1-2.51.62,12.86,12.86,0,0,1-1.46.2l-1.46.12a9.87,9.87,0,0,1-1.5-.12,6.93,6.93,0,0,1-1.49-.38h0a4.55,4.55,0,0,1-1.7-1.12,5,5,0,0,1-1-1.48,7.59,7.59,0,0,1-.56-1.73q-.17-.85-.24-1.68a5.34,5.34,0,0,1-.09-.95V142c0-.19,0-.41,0-.66a.75.75,0,0,1,0-.2,2,2,0,0,0,0-.25,3.75,3.75,0,0,0,0-.5,3.48,3.48,0,0,1,0-.55l-.08.23.12-.73-.81-3.45c0-.09-.21-.06-.53.11s-.69.36-1.09.59-.77.46-1.1.68a2.1,2.1,0,0,0-.52.44l-.25-.32v.23a3.8,3.8,0,0,0-.24.81c-.51.79-1.09,1.65-1.74,2.57s-1.39,1.88-2.22,2.85c-.55.63-1.19,1.33-1.93,2.09s-1.56,1.53-2.45,2.32a25.77,25.77,0,0,1-3,2.32,21.18,21.18,0,0,1-3.83,2,14.57,14.57,0,0,1-5.38,1.18,11.49,11.49,0,0,1-2.64-.36l0,0a3.65,3.65,0,0,1-1.13-.57,2.58,2.58,0,0,1-.81-1,2.4,2.4,0,0,1-.26-.88,5.45,5.45,0,0,1,0-1.07,12.21,12.21,0,0,1,.42-2.57c.23-.83.47-1.58.71-2.25s.43-1.1.71-1.75.56-1.24.83-1.75c.57-1.09,1-2,1.4-2.57.27-.46.48-.82.67-1.12.06-.06.12-.11.16-.16s.25-.25.36-.34a4.48,4.48,0,0,0,.85-1.36,3.91,3.91,0,0,0,.29-1.41,2.71,2.71,0,0,0-.81-2.05,2.56,2.56,0,0,0-.59-.42c-.05-.05-.09-.11-.14-.17a2.12,2.12,0,0,0-2.05-.23,3.49,3.49,0,0,0-1.92,1.73l-.16.37a.66.66,0,0,0-.15.25h0c-.3.33-.64.73-1.05,1.19q-1.15,1.32-2.73,2.91-1.17,1.18-2.85,2.73c-1.13,1-2.41,2.14-3.87,3.32s-3.06,2.39-4.88,3.73A50.41,50.41,0,0,1,409.5,152a17.57,17.57,0,0,1-3.13,1.36,20.41,20.41,0,0,1-2.86.73,14.71,14.71,0,0,1-1.58.18c-.51,0-1,0-1.33,0h-.89a5.32,5.32,0,0,1-.85,0,31.16,31.16,0,0,1-3.49-.59c-1-.24-1.91-.48-2.67-.73s-1.64-.61-2.43-.93-1.52-.64-2.23-1l-5-2.85c-1.2-.68-2.09-1.2-2.67-1.54l-1.13-.69a3.43,3.43,0,0,1-.39-.25.3.3,0,0,1-.1-.09.18.18,0,0,0-.1-.09L378,145l-1.82-.05-.77.09-.2.21a1.88,1.88,0,0,0-.2.2l-.73.59a15.15,15.15,0,0,0-1.18,1,.32.32,0,0,1-.14.11.54.54,0,0,0-.14.11c-1.81,1.43-3.55,2.73-5.22,3.92l-2.15,1.5a21,21,0,0,1-2,1.22,20,20,0,0,1,1.38-3.25c.51-1,1-1.81,1.45-2.57v.05c.52-.79,1.05-1.55,1.6-2.3s1.07-1.41,1.56-2h0l.16-.18c.85-1,1.6-1.77,2.25-2.47l.45-.38.42-.38s.08-.05.06-.05l.06,0,.16-.14.15-.14a.76.76,0,0,0,.14-.13.67.67,0,0,1,.16-.14,1.06,1.06,0,0,1,.22-.18c.1-.06.12-.08.06,0l.15-.11.14-.11a1.88,1.88,0,0,1,.2-.19,1.2,1.2,0,0,0,.2-.18l.32-.32a4,4,0,0,0,.37-.36,10.38,10.38,0,0,0,.76-.86l.13-.09.14-.09.14-.14a.52.52,0,0,1,.21-.14,4.17,4.17,0,0,0,1.23-2.3,3.09,3.09,0,0,0-.16-1.75,2,2,0,0,0-.3-.81,1.5,1.5,0,0,0-1-.55.86.86,0,0,0-.16,0,2.46,2.46,0,0,0-.87-.18,3.17,3.17,0,0,0-2.15.91c-.3.3-.57.58-.82.85a9.19,9.19,0,0,0-.75.65c-.38.42-.75.8-1.1,1.13s-.69.67-1,1l-.16.18-.22.25a3.59,3.59,0,0,1-.27.25,1.82,1.82,0,0,1-.24.23,2.42,2.42,0,0,0-.28.27l-.37.41c-.57.54-1.23,1.17-2,1.88s-1.72,1.56-2.86,2.53c-.64.58-1.37,1.19-2.16,1.84s-1.63,1.31-2.49,2-2,1.46-3.24,2.29a34.34,34.34,0,0,1-3.85,2.3c-.65.37-1.39.74-2.22,1.12a22.39,22.39,0,0,1-2.39.93,22.76,22.76,0,0,1-2.61.61,11.87,11.87,0,0,1-2.86.16,10.81,10.81,0,0,1-2.85-.59,7.56,7.56,0,0,1-2.65-1.59,9.92,9.92,0,0,1-2.19-2.82,21.54,21.54,0,0,1-1.58-3.78,18.89,18.89,0,0,1-.63-2.57c-.15-.86-.26-1.72-.34-2.56s-.12-1.55-.12-2.19c0-.39,0-.81.06-1.25s.08-.89.14-1.34a3.26,3.26,0,0,0,0-.34.49.49,0,0,1,0-.21c.38-.27.76-.56,1.13-.88a14.29,14.29,0,0,0,1.06-1q.93-.87,1.86-1.77c.62-.61,1.24-1.25,1.86-1.91q1.55-1.59,3.16-3.39l3.48-3.84v0c.3-.3.58-.61.85-.93s.55-.65.85-1l1-1.18,4.72-5.3c1.69-1.89,3.5-4,5.45-6.34.78-1,1.57-2,2.39-3s1.53-2,2.18-2.89l0-.09c.22-.3.41-.58.59-.82s.29-.41.34-.5l.16-.36.13-.28.12-.22.18-.57a2.39,2.39,0,0,0,.1-.71v-.45a3.28,3.28,0,0,0-.3-.86,4.27,4.27,0,0,0-.67-1,2.84,2.84,0,0,0-.95-.44,2.46,2.46,0,0,0-.71,0l-.08,0a1.36,1.36,0,0,0-.63.12l-.38.2h0l-.75.55a6.64,6.64,0,0,0-.55.45h0l-1.42,1.23c-1.18,1.09-2.27,2.12-3.25,3.09s-1.93,1.93-2.82,2.87h0a4,4,0,0,0-.4.41l-.08.07a3.26,3.26,0,0,0-.33.25q-2.1,2.17-3.9,4.16c-1.21,1.32-2.41,2.63-3.63,3.93v0c-.3.3-.57.6-.83.91s-.53.6-.83.9-.44.5-.69.76l-.73.75q-2.62,2.87-5.87,6.3t-7.57,8a3.59,3.59,0,0,1-.32.35c-.11.1-.22.22-.33.34v-.05q-2.05,2.19-4.49,4.71t-5.18,5.25l0,0a4.69,4.69,0,0,0-.49.5,2.93,2.93,0,0,1-.36.36l-2.84,2.8c-1,.95-2,1.93-3,2.93-1.22,1.15-2.45,2.31-3.71,3.48S302.27,152,301,153c.11-.64.25-1.35.42-2.14s.37-1.62.59-2.5q0-.22.06-.27l.06-.23a.79.79,0,0,1,0-.23v-.18c.41-1.54.82-3,1.24-4.52s.81-2.91,1.19-4.3l.24-1a3.37,3.37,0,0,0,.15-.48.06.06,0,0,1,0,0,6.32,6.32,0,0,0,.51-.53,6.65,6.65,0,0,0,1-1.45,4.42,4.42,0,0,0,.4-1.73,3,3,0,0,0-.32-1.39l0,0c.46-1.54.91-3,1.35-4.43q1.32-4.23,2.49-8,2-6.33,3.52-11c1-3.1,1.93-5.84,2.72-8.21l0,.05.16-.5a4.92,4.92,0,0,1,.16-.5l.26-.75q.15-.39.27-.75c.13-.4.26-.77.4-1.14.46-1.36.86-2.55,1.19-3.57s.64-1.89.9-2.64.48-1.37.66-1.91l.49-1.38c.08-.24.17-.47.26-.69a4.45,4.45,0,0,0,.23-.59l-.05,0c.06-.15.11-.3.17-.46s.11-.28.16-.4a11.29,11.29,0,0,0,.46-1.89,10.8,10.8,0,0,0,.15-1.71,5.06,5.06,0,0,0-.33-1.93,2,2,0,0,0-1-1.11,1.47,1.47,0,0,0-1.17.11,4.23,4.23,0,0,0-1.2.91,7.74,7.74,0,0,0-1.11,1.54,11.65,11.65,0,0,0-.89,2,1,1,0,0,0-.08.23c0,.09-.07.21-.13.36s-.12.47-.22.77-.19.64-.3,1-.23.7-.37,1.09-.27.84-.4,1.32v0q-.64,2-1.64,5.25t-2.29,7.39a1.28,1.28,0,0,0-.1.34,1.18,1.18,0,0,1-.1.34c-.05.16-.11.3-.16.44a2.88,2.88,0,0,0-.16.65v-.09q-1.26,4-2.82,9.24T304.52,123q-1,3.56-2.17,7.48c-.17.62-.35,1.26-.53,1.9l-.7.49a16.37,16.37,0,0,1-1.56,1.11c-.5.32-1.09.66-1.76,1a25.26,25.26,0,0,1-2.31,1.2c-1,.47-2.1,1-3.32,1.48q-2.26.92-5.42,2c-2.11.71-4.51,1.42-7.21,2.11l0,0-.87.2q-.42.12-.87.21l-.69.18-.69.18,0,0q-3.08.78-6.82,1.78t-8.08,2.32c-.26-.85-.55-1.65-.86-2.39s-.62-1.45-.92-2.11c-.46-1.1-1-2.22-1.62-3.39s-1.22-2.24-1.82-3.21q-1.33-2.46-3.16-5.23l-4-6c-.22-.3-.44-.62-.65-1l-.65-1c-.54-.81-1.11-1.68-1.7-2.59l0,0a1,1,0,0,1-.12-.19,1.4,1.4,0,0,0-.12-.18,7.49,7.49,0,0,0-.45-.61l-.12-.16q-1.45-2.28-3.08-4.84t-3.48-6c-.62-1.15-1.23-2.38-1.84-3.66a33.31,33.31,0,0,1-1.64-4.3v0c-.19-.69-.36-1.41-.51-2.13a8.73,8.73,0,0,1-.14-2.23,6.53,6.53,0,0,1,.37-1.89,4,4,0,0,1,1-1.61,7,7,0,0,1,1.9-1.46,12.15,12.15,0,0,1,2.11-.86,13.45,13.45,0,0,1,2.29-.57c.82-.14,1.63-.25,2.44-.34s1.73-.15,2.6-.18,1.68,0,2.47,0l2,0c.74,0,1.38,0,1.92.07a69.07,69.07,0,0,1,7.69.84,30.25,30.25,0,0,1,6.52,1.8,14.37,14.37,0,0,1,2.51,1.27A9.6,9.6,0,0,1,272.5,94a6.37,6.37,0,0,1,1.07,1.71,8.75,8.75,0,0,1,.55,1.84,10.05,10.05,0,0,1,0,2,14.41,14.41,0,0,1-.33,1.75c-.19.58-.39,1.14-.61,1.68s-.43,1.08-.64,1.59a25.52,25.52,0,0,1-1.38,2.5c-.46.73-.88,1.39-1.26,2l0,0c-.43.57-.8,1.06-1.11,1.45l-.87,1.09h0c-.19.21-.34.4-.46.55s-.24.3-.35.45l-.28.37-.24.27-.73.77a10.67,10.67,0,0,0-1.12,1.62,7.71,7.71,0,0,0-.69,1.63,5.4,5.4,0,0,0-.2,1.48,1.86,1.86,0,0,0,.39,1.14,1.51,1.51,0,0,0,1,.61,3.14,3.14,0,0,0,1.44-.11,6.28,6.28,0,0,0,1.6-.77,6.82,6.82,0,0,0,1.55-1.46c.22-.24.57-.68,1.06-1.32s1.12-1.5,1.9-2.59c.35-.52.78-1.17,1.28-2s1-1.62,1.47-2.5a34.93,34.93,0,0,0,1.54-3.2,28,28,0,0,0,1.38-4.12,15,15,0,0,0,.44-3.59,15.25,15.25,0,0,0-.12-2,12.73,12.73,0,0,0-.91-3.16,12.21,12.21,0,0,0-1.72-2.89,12.37,12.37,0,0,0-2.31-2.07A22.41,22.41,0,0,0,271.08,87,19.1,19.1,0,0,0,268,85.73c-1-.31-2-.59-3-.84a49.34,49.34,0,0,0-6.64-1c-2.35-.18-4.85-.28-7.49-.28-1.38,0-2.76,0-4.13.12a33.3,33.3,0,0,0-4.17.48c-.68.15-1.41.32-2.19.52a21.31,21.31,0,0,0-2.35.75,17.46,17.46,0,0,0-2.27,1.16,12.13,12.13,0,0,0-2.34,1.89,10.14,10.14,0,0,0-1.74,2.68,9.1,9.1,0,0,0-.82,3,14.64,14.64,0,0,0,0,2.8,17.23,17.23,0,0,0,.46,2.7v0a28.37,28.37,0,0,0,1.38,4.3c.56,1.37,1.13,2.61,1.7,3.7,1.08,2.12,2.14,4.06,3.18,5.8s2,3.31,2.89,4.71v0a1.2,1.2,0,0,0,.16.34,1.93,1.93,0,0,0,.17.21c1.07,1.73,2.09,3.32,3,4.77l3.1,4.89c.9,1.44,1.75,2.83,2.53,4.16q1.58,2.78,3,5.44t2.73,5.57v-.05l.81,2.07c.3.77.58,1.56.85,2.34l-1.86.59a95,95,0,0,0-8.87,3.51c-1.43.66-2.83,1.35-4.19,2a31.65,31.65,0,0,0-4.07,2.5c-.7.55-1.42,1.16-2.15,1.82a13.23,13.23,0,0,0-2.1,2.55,7.56,7.56,0,0,0-.89,2.12,5.38,5.38,0,0,0,0,2.56,5.52,5.52,0,0,0,1.11,2.35,9,9,0,0,0,1.72,1.57A11.78,11.78,0,0,0,239,171a19.06,19.06,0,0,0,4,.51,20.06,20.06,0,0,0,4.15-.28,25,25,0,0,0,4.48-1.18,19.57,19.57,0,0,0,6-3.87,16.27,16.27,0,0,0,3.86-5.27,15.64,15.64,0,0,0,1-3,15.19,15.19,0,0,0,.38-2.95,24.68,24.68,0,0,0-.24-4.14l2-.57q.91-.26,1.74-.45l1.66-.41,1.76-.44c.27-.06.54-.12.81-.2l.77-.21,0,.05,2-.45,1.9-.46,1.27-.27,1.24-.28,2.95-.7c1-.23,1.85-.46,2.72-.7l0,0q5.1-1.28,8.44-2.41t5.53-2l2.31-1c-.26,1-.52,2.06-.8,3.16-.42,1.69-.81,3.35-1.19,5a1,1,0,0,0-.08.32V149l0-.09a.12.12,0,0,1,0,.07.08.08,0,0,0,0,.07.68.68,0,0,0-.1.34,1.92,1.92,0,0,1-.06.3c-.14.63-.26,1.27-.37,1.91s-.22,1.28-.32,1.95c0,.25-.05.49-.06.73s0,.54,0,.91a.39.39,0,0,0,0,.18.29.29,0,0,1,0,.09,4.54,4.54,0,0,0,0,.57,4.38,4.38,0,0,0,.1.61l.16.37V157a5.43,5.43,0,0,0,.32.64,2.87,2.87,0,0,0,.61.64,3.36,3.36,0,0,0,1,.34,3.71,3.71,0,0,0,.87,0,3.21,3.21,0,0,0,.81-.18,2.55,2.55,0,0,0,.69-.37s0,0,0,0a.38.38,0,0,0,.25-.14l.08,0,.32-.23a1.31,1.31,0,0,0,.3-.16l.19-.16a.85.85,0,0,0,.28-.23c1.38-1.12,2.68-2.25,3.93-3.38s2.36-2.19,3.36-3.16l2.39-2.3q1.13-1.11,2.22-2.16a2.81,2.81,0,0,1,.35-.34c.12-.11.23-.22.34-.34l.08-.07a.27.27,0,0,0,.08-.07,1.13,1.13,0,0,0,.23-.2l.22-.26q2.67-2.67,5-5t4.23-4.32c.3-.33.6-.64.91-.93s.61-.58.91-.89a3.24,3.24,0,0,0-.08.55c-.06.51-.09,1.14-.1,1.86s0,1.35,0,1.87q.07,1.64.3,3.39a26.31,26.31,0,0,0,.67,3.43,22.46,22.46,0,0,0,2.23,5.68,15.88,15.88,0,0,0,3.52,4.41,12.41,12.41,0,0,0,4.53,2.39,14.9,14.9,0,0,0,4.58.57,17.73,17.73,0,0,0,4-.61c1.23-.35,2.41-.74,3.54-1.16s2.17-.93,3.1-1.41,1.83-1,2.69-1.5q2.1-1.32,4.25-2.82l.12-.09a24.54,24.54,0,0,0-.93,2.82V153c-.08.27-.15.55-.22.84s-.12.51-.14.66l0,0a10.07,10.07,0,0,0-.12,1,4.16,4.16,0,0,0,0,1.05l0-.09a2.77,2.77,0,0,0,.4,1.16,2.53,2.53,0,0,0,.85.84,3.33,3.33,0,0,0,1.13.45c.33,0,.64,0,.94,0a4,4,0,0,0,.85-.18,21.8,21.8,0,0,0,2.14-.87c.7-.33,1.34-.67,1.9-1q1.9-1.09,4.3-2.61c1.59-1,3.33-2.19,5.22-3.53a1.9,1.9,0,0,1,.26.21l.22.16c.33.24.67.47,1,.68l1,.59c.05,0,.09.05.1.07l.1.06,0,0c.65.42,1.28.8,1.88,1.14l1.72.91c1.11.51,2.14.95,3.08,1.32s1.93.71,3,1,2.21.66,3.56,1a38.22,38.22,0,0,0,4.29.75c.51.06,1.09.11,1.74.16s1.28.07,1.9.07l1.28,0a9.55,9.55,0,0,0,1.28-.11,21.15,21.15,0,0,0,3.88-.82,24.85,24.85,0,0,0,4.29-1.73q2.12-1.09,4.11-2.29c1.34-.81,2.6-1.6,3.79-2.39s2.29-1.55,3.3-2.28,1.89-1.39,2.65-2l1.56-1.27c-.1.46-.19.92-.26,1.39s-.15,1.08-.21,1.75,0,1.29,0,1.95a9.81,9.81,0,0,0,.39,2.14,7.52,7.52,0,0,0,1.11,2.21,7.11,7.11,0,0,0,1.8,1.79,7.31,7.31,0,0,0,2.07,1,10.46,10.46,0,0,0,2.1.43,4.44,4.44,0,0,0,.69.05h.73a17.1,17.1,0,0,0,3.6-.39,18,18,0,0,0,3.73-1.25l0,.05a22.65,22.65,0,0,0,3.74-2.12c1.15-.8,2.18-1.57,3.1-2.29s1.73-1.47,2.45-2.12,1.36-1.28,1.92-1.89h0a22.51,22.51,0,0,0,2.15-2.27c.11.7.25,1.41.44,2.14a13.74,13.74,0,0,0,.81,2.23,10.79,10.79,0,0,0,1.68,2.47,8.11,8.11,0,0,0,2.21,1.8,9.54,9.54,0,0,0,2.29.89,15.27,15.27,0,0,0,2.28.38,13.67,13.67,0,0,0,3.89-.34c1.22-.28,2.39-.61,3.52-1a32.09,32.09,0,0,0,5.09-2q2.2-1.14,4.15-2.18a2.93,2.93,0,0,1,.26-.19,2.63,2.63,0,0,1,.34-.18,1.63,1.63,0,0,1,.33-.18l.36-.18c2.21-1.18,4.18-2.31,5.91-3.37s3.25-2,4.58-2.86a.84.84,0,0,1,.28-.18,3.46,3.46,0,0,0,.41-.23l.89-.59.89-.62.89-.57v0c.38-.24.75-.48,1.11-.73s.7-.47,1-.68l.45-.32a2.5,2.5,0,0,1,.44-.27h0l.49-.32c.13-.09.28-.18.44-.27l.55-.37.47-.27c.35-.24.6-.42.77-.52a2.79,2.79,0,0,1,.28-.16l1.64.52a49.34,49.34,0,0,0,5.08,1.21c1.24.24,2.69.44,4.35.61s3.57.27,5.73.3,4.51-.1,7.06-.3a70.79,70.79,0,0,0,8.33-1.2c1-.22,2-.42,2.81-.62s1.71-.41,2.57-.66q-.57,1.14-.93,1.89c-.24.5-.45,1-.63,1.34s-.34.77-.51,1.14l-.56,1.27c-.43.94-.85,1.9-1.24,2.87a30.68,30.68,0,0,0-1.15,3.64l-.2.77a.29.29,0,0,1,0,.09.15.15,0,0,0,0,.09l-.09.48c0,.16-.06.48-.12.93s0,1,0,1.52a6.54,6.54,0,0,0,.35,1.8v0a5.39,5.39,0,0,0,1.17,2.09,5.67,5.67,0,0,0,.95.84,8.13,8.13,0,0,0,1.08.61,6.49,6.49,0,0,0,1.72.39,14.13,14.13,0,0,0,1.72,0,19.47,19.47,0,0,0,4.57-.91q2-.67,3.93-1.41c1.21-.51,2.37-1,3.48-1.57s2.17-1.05,3.2-1.57l1.62-.82,1.58-.81h0l1.82-1,3-1.57c.95-.5,1.88-1,2.77-1.38l1.58-.8c.51-.26,1-.51,1.54-.75l4.92-2.41c1.49-.73,2.82-1.4,4-2q2.8-1.41,4.62-2.25c1.22-.56,2.2-1,3-1.34s1.43-.64,1.78-.82a6,6,0,0,1,.81-.37s0,0,.12,0l.2-.09a.27.27,0,0,1,.1,0l.1-.05a4,4,0,0,0,1.91-1.95A3.05,3.05,0,0,0,592.75,132.82ZM257.66,147.76l.06,0h0l-.16,0Zm.16,8.71a6.78,6.78,0,0,1-.75,2.19l0,0a11,11,0,0,1-2,3,14.72,14.72,0,0,1-2.7,2.19h0a20.82,20.82,0,0,1-3.22,1.5,16.44,16.44,0,0,1-3.25.81c-.49.06-1,.12-1.44.16a12.91,12.91,0,0,1-1.36.07q-.93,0-1.86-.09a10.14,10.14,0,0,1-1.74-.32c-.38-.12-.76-.26-1.14-.41a2.76,2.76,0,0,1-.85-.5c-.4-.36-.58-.68-.52-1l0,0a2.27,2.27,0,0,1,.44-.84,11.72,11.72,0,0,1,.81-.93,11.2,11.2,0,0,1,1.1-1.09c.35-.31.71-.59,1.09-.87a24.58,24.58,0,0,1,2.59-1.75c.86-.5,1.69-1,2.47-1.38h0q2.55-1.28,5.12-2.35t5-1.84l-.08,0,.45-.16.4-.16c.3-.12.58-.23.85-.32l.77-.27a8.3,8.3,0,0,1,.1,1c0,.31,0,.62,0,1A14.47,14.47,0,0,1,257.82,156.47Z"/>
    <polygon points="17.3 121.56 14.12 121.56 14.12 112.44 25.84 112.44 25.84 121.56 22.68 121.56 22.68 124.92 32.98 124.92 32.98 121.56 29.9 121.56 29.9 101.37 32.98 101.37 32.98 98 22.68 98 22.68 101.37 25.84 101.37 25.84 109.07 14.12 109.07 14.12 101.37 17.3 101.37 17.3 98 7 98 7 101.37 10.06 101.37 10.06 121.56 7 121.56 7 124.92 17.3 124.92 17.3 121.56"/>
    <path d="M56,123.48a14.26,14.26,0,0,0,7.19,1.87,13.79,13.79,0,0,0,10.12-3.94,14.53,14.53,0,0,0,.07-19.89,13.66,13.66,0,0,0-10.13-4,13.32,13.32,0,0,0-10,4,13.56,13.56,0,0,0-3.83,9.82,15.54,15.54,0,0,0,1.64,6.93A11.93,11.93,0,0,0,56,123.48Zm.48-19.4a8.61,8.61,0,0,1,6.73-2.93,8.93,8.93,0,0,1,6.88,3,10.3,10.3,0,0,1,2.74,7.26,10.71,10.71,0,0,1-2.69,7.33,8.71,8.71,0,0,1-6.87,3.07,8.57,8.57,0,0,1-6.81-3,11,11,0,0,1-2.6-7.43A10.48,10.48,0,0,1,56.51,104.08Z"/>
    <path d="M108.54,101.37h3.12V115a15.79,15.79,0,0,1-.41,4.35,3.53,3.53,0,0,1-1.7,2,7.49,7.49,0,0,1-3.68.73,5.88,5.88,0,0,1-3.29-.84,3.53,3.53,0,0,1-1.59-2,19.19,19.19,0,0,1-.32-4.34V101.37h3.19V98H93.27v3.37H96.6V115a22.53,22.53,0,0,0,.34,4.63,7.25,7.25,0,0,0,1.36,2.81,7,7,0,0,0,3.06,2.1,14.37,14.37,0,0,0,5.09.78,11.81,11.81,0,0,0,4.71-.84,7.3,7.3,0,0,0,3-2.25,6.61,6.61,0,0,0,1.31-2.69,25.07,25.07,0,0,0,.24-4.13V101.37h3.37V98H108.54Z"/>
    <path d="M138.15,111.25a31.81,31.81,0,0,0,5.36,1.83,13.46,13.46,0,0,1,4.24,1.67,3.22,3.22,0,0,1,1.12,2.76,4,4,0,0,1-1.37,3.19,4.87,4.87,0,0,1-3.37,1.22q-3.91,0-6.33-4.39v-2.38h-3.37v9.78h3.37V122.7a9.62,9.62,0,0,0,6.62,2.65,8.51,8.51,0,0,0,6-2.25,7.4,7.4,0,0,0,2.43-5.69,8.12,8.12,0,0,0-1.16-4.32,7,7,0,0,0-2.77-2.68,29.14,29.14,0,0,0-5.17-1.73,31,31,0,0,1-3.66-1.08,3.47,3.47,0,0,1-1.52-1.21,3.09,3.09,0,0,1-.61-1.91,3.13,3.13,0,0,1,1.18-2.43,5.1,5.1,0,0,1,3.39-1,6.51,6.51,0,0,1,5.71,3.11V106h3.3V97.86h-3.3v1.8a9.75,9.75,0,0,0-6-2.09,8.19,8.19,0,0,0-5.66,2,6.94,6.94,0,0,0-2.25,5.42,6.77,6.77,0,0,0,1,3.78A7,7,0,0,0,138.15,111.25Z"/>
    <polygon points="191.04 116.66 187.71 116.66 187.71 121.56 176.21 121.56 176.21 112.75 186.22 112.75 186.22 109.38 176.21 109.38 176.21 101.37 187.71 101.37 187.71 106.11 191.04 106.11 191.04 98 168.66 98 168.66 101.37 172.15 101.37 172.15 121.56 168.66 121.56 168.66 124.92 191.04 124.92 191.04 116.66"/>
    <path d="M141,138.65a13.29,13.29,0,0,0-10,3.95,13.53,13.53,0,0,0-3.84,9.82,15.49,15.49,0,0,0,1.65,6.94,11.93,11.93,0,0,0,4.92,5.2,14.27,14.27,0,0,0,7.2,1.87,13.75,13.75,0,0,0,10.11-3.94,14.51,14.51,0,0,0,.07-19.89A13.66,13.66,0,0,0,141,138.65Zm6.89,21.15a8.71,8.71,0,0,1-6.87,3.07,8.57,8.57,0,0,1-6.81-3,11,11,0,0,1-2.59-7.43,10.52,10.52,0,0,1,2.61-7.28,8.63,8.63,0,0,1,6.74-2.93,9,9,0,0,1,6.88,3,10.35,10.35,0,0,1,2.74,7.27A10.71,10.71,0,0,1,147.9,159.8Z"/>
    <polygon points="171.2 142.45 174.61 142.45 174.61 162.64 171.2 162.64 171.2 166.01 182.12 166.01 182.12 162.64 178.67 162.64 178.67 153.79 187.36 153.79 187.36 150.42 178.67 150.42 178.67 142.45 188.76 142.45 188.76 147.19 192.09 147.19 192.09 139.08 171.2 139.08 171.2 142.45"/>
    <rect x="7" y="157.64" width="109.34" height="5.57"/>
    <rect x="7" y="151.78" width="109.34" height="1.83"/>
    <rect x="7" y="146.82" width="109.34" height="1.83"/>
    <rect x="7" y="141.87" width="109.34" height="1.83"/>
  </g>
</svg>
