<svg id="Layer_1" data-name="Layer 1" xmlns="http://www.w3.org/2000/svg" viewBox="0 0 100 100">
  <defs>
    <style>
      .cls-1 {
        fill: #fff;
      }
    </style>
  </defs>
  <title>Instagram_Footer</title>
  <g>
    <path class="cls-1" d="M65.72,14.91H34.28A19.39,19.39,0,0,0,14.91,34.28V65.72A19.39,19.39,0,0,0,34.28,85.09H65.72A19.39,19.39,0,0,0,85.09,65.72V34.28A19.39,19.39,0,0,0,65.72,14.91ZM78.87,65.72A13.17,13.17,0,0,1,65.72,78.87H34.28A13.17,13.17,0,0,1,21.13,65.72V34.28A13.17,13.17,0,0,1,34.28,21.13H65.72A13.17,13.17,0,0,1,78.87,34.28V65.72Z"/>
    <path class="cls-1" d="M50,31.92A18.09,18.09,0,1,0,68.09,50,18.11,18.11,0,0,0,50,31.92Zm0,29.94A11.86,11.86,0,1,1,61.86,50,11.87,11.87,0,0,1,50,61.86Z"/>
    <path class="cls-1" d="M68.84,26.64A4.56,4.56,0,1,0,72.07,28,4.57,4.57,0,0,0,68.84,26.64Z"/>
  </g>
</svg>
