<svg id="Layer_1" data-name="Layer 1" xmlns="http://www.w3.org/2000/svg" viewBox="0 0 600 250">
  <title>Little craft trunk</title>
  <g>
    <path d="M309.58,35.48v.05A.2.2,0,0,0,309.58,35.48Z"/>
    <path d="M310.83,50.2c-.18.13-.31.22-.39.29a8.1,8.1,0,0,1-1.4.84,8,8,0,0,1-1.81.61,10.14,10.14,0,0,1-1.13-.13,2.39,2.39,0,0,1-.71-.22,1.35,1.35,0,0,1-.65-.54,2.29,2.29,0,0,1-.34-.94,1.38,1.38,0,0,1,0-.61,2,2,0,0,1,.25-.51,36.34,36.34,0,0,0,2.91-4.27,9.14,9.14,0,0,0,1.23-3.14l.11-.87c.06-.44.11-.76.14-1s.05-.21.06-.19l-.33-1.08a8,8,0,0,0-.48-1,2.12,2.12,0,0,0-.44-.58,1.5,1.5,0,0,0-.74-.35,3.28,3.28,0,0,0-1.07,0,4.18,4.18,0,0,0-.86.2c-.25.09-.48.19-.68.28a6.45,6.45,0,0,1-.61.57,7.27,7.27,0,0,0-.56.54c-.33.55-.66,1.09-1,1.63s-.65,1-1,1.49a22,22,0,0,0-.78,2.09c-.18.61-.33,1.13-.43,1.53s-.16.78-.22,1.13a5.9,5.9,0,0,0-.12.9c0,.35,0,.7,0,1.05s0,.7,0,1.06a9.76,9.76,0,0,0-1.08,1.34,6.7,6.7,0,0,0-.65,1.23l0,0c-.34.39-.65.74-.91,1a7.71,7.71,0,0,1-.73.71c-.73.37-1.3.65-1.72.84a5.34,5.34,0,0,1-.76.3,3.63,3.63,0,0,1-3.21-.86A6.27,6.27,0,0,1,289.28,50c.45-1,.88-2,1.28-3,.31-.65.6-1.22.85-1.7s.45-.89.6-1.21.2-.67.29-1a5.58,5.58,0,0,1,.24-.7c.19-.42.36-.77.49-1a4.86,4.86,0,0,0,.32-.74,10.48,10.48,0,0,0,.35-1.12,5.17,5.17,0,0,0,.15-.82c.14-.34.28-.65.41-.93s.23-.51.31-.7c.17-.72.3-1.38.41-2s.19-1.13.25-1.58.28-1,.37-1.34a8.2,8.2,0,0,0,.18-.93l-.08-.37a1.11,1.11,0,0,0,.07-.43,4.57,4.57,0,0,1,.08-1.54,4.31,4.31,0,0,0,.1-1.3,9.47,9.47,0,0,1-.05-1.34,9.44,9.44,0,0,0,0-1.32,3.32,3.32,0,0,0-.88-2.13,2.93,2.93,0,0,0-2.17-.28,2.55,2.55,0,0,0-1.56,1.29,19.81,19.81,0,0,0-1.74,3.43c-.46,1.14-.86,2.24-1.2,3.31a22,22,0,0,0-.77,3c-.16.58-.31,1.09-.44,1.55a8.18,8.18,0,0,1-.4,1.14c-.28,1.7-.53,3.27-.74,4.72s-.34,2.77-.4,4l.23.48a6.6,6.6,0,0,0-.17,1.76,16.08,16.08,0,0,0,.05,2.05,2.75,2.75,0,0,1,.16.54,2,2,0,0,1,0,.37.27.27,0,0,1-.08.22l-1.51,1.77a6.3,6.3,0,0,0-.51.92,5.16,5.16,0,0,1-.38.71l0,0q-1.52,1.71-2.37,2.61a4.68,4.68,0,0,1-1,.92.43.43,0,0,1-.43-.15,1.3,1.3,0,0,1-.22-.61,14.85,14.85,0,0,1,0-1.86q0-1.4.12-3.66c.19-1.9.37-3.54.55-4.94s.34-2.56.51-3.47c0-.35.07-.65.08-.91s0-.48,0-.66l1.72-.62c.21,0,.32-.36.33-.95a14.09,14.09,0,0,0-.21-2.44,2.19,2.19,0,0,0-.15-.6.66.66,0,0,0-.27-.33,1.46,1.46,0,0,1-.31-.23,1.4,1.4,0,0,1-.17-.2,6.73,6.73,0,0,1,.19-1.54,5,5,0,0,0,.12-1.64,1.7,1.7,0,0,0-.51-1.1,1.21,1.21,0,0,0-1-.25c-.79.11-1.41,1-1.86,2.78s-1,2.69-1.58,2.85l-.9-.14-.7.25-.65.24a5.82,5.82,0,0,0-.78,0c-.33,0-.74.06-1.21.13l-.71.26c-.34,0-.73,0-1.17,0s-.89.07-1.38.14-.81.42-1,1a7.24,7.24,0,0,0,0,2.56.7.7,0,0,0,.18.39,1.24,1.24,0,0,0,.58.25l.46.13.52.15.7-.07.7-.07,3.27-.48a2.32,2.32,0,0,0,.52-.17,3.24,3.24,0,0,1,.5-.17.37.37,0,0,1,.27,0,.29.29,0,0,1,.11.22c-.14.5-.27.92-.4,1.26a8.09,8.09,0,0,1-.36.83,51.12,51.12,0,0,1-2.7,6,30.36,30.36,0,0,1-3,4.65l-.49.81-.33.59-.07.22,0,0c-1,1.15-1.81,2-2.39,2.62a4.7,4.7,0,0,1-1,.93.45.45,0,0,1-.42-.16,1.17,1.17,0,0,1-.22-.61,13,13,0,0,1,0-1.86c0-.93.06-2.15.12-3.65q.29-2.85.54-4.95c.18-1.39.35-2.55.52-3.47,0-.34.07-.64.08-.9s0-.48,0-.66l1.72-.63c.21,0,.32-.36.33-.94A16.34,16.34,0,0,0,268,39.2a2.17,2.17,0,0,0-.15-.61.59.59,0,0,0-.27-.32,1.87,1.87,0,0,1-.31-.24,1.62,1.62,0,0,1-.18-.2,6.94,6.94,0,0,1,.2-1.54,4.94,4.94,0,0,0,.12-1.63,1.65,1.65,0,0,0-.51-1.1,1.21,1.21,0,0,0-1-.26q-1.18.18-1.86,2.79c-.45,1.74-1,2.69-1.58,2.84l-.9-.13-.7.25c-.22.07-.43.15-.65.24a3.68,3.68,0,0,0-.78,0,10.45,10.45,0,0,0-1.21.12l-.71.26a11.38,11.38,0,0,0-1.17,0c-.43,0-.89.06-1.38.13s-.81.42-1,1a7.3,7.3,0,0,0,0,2.57.62.62,0,0,0,.18.38,1.11,1.11,0,0,0,.58.25l.46.14.52.15.7-.08c.32,0,.55-.05.69-.07l3.28-.48a2.18,2.18,0,0,0,.52-.16,1.92,1.92,0,0,1,.5-.17.37.37,0,0,1,.27,0,.29.29,0,0,1,.11.22c-.14.51-.27.93-.4,1.27a7.79,7.79,0,0,1-.36.82,50.39,50.39,0,0,1-2.7,6,29.43,29.43,0,0,1-3,4.65l-.48.82-.33.58-.07.23h0l-.74.8-.72.81a3.43,3.43,0,0,1-.94.74,3.14,3.14,0,0,1-.94.31,1.63,1.63,0,0,1-.67,0,.79.79,0,0,1-.45-.33,4.79,4.79,0,0,1-.57-1.15c-.28-.69-.5-1.19-.67-1.52-.15-.55-.32-1.09-.51-1.63s-.37-1.06-.57-1.59a2.3,2.3,0,0,0-1-1.25A2.59,2.59,0,0,0,245,53a1.37,1.37,0,0,0-.66.28,1.62,1.62,0,0,0-.51.69,16.19,16.19,0,0,1-2.1,2.88,18.29,18.29,0,0,0-2.12,2.89l0,.27-.13.21h0a3.27,3.27,0,0,1-.37.51,5.44,5.44,0,0,1-.54.52,3.68,3.68,0,0,1-.37.75l-.38.21a2.2,2.2,0,0,1-.39.17A25.87,25.87,0,0,1,234,63.93a15.69,15.69,0,0,1-3.28.85c-.25,0-.45-.09-.62-.39a3.74,3.74,0,0,1-.38-1.31,19.69,19.69,0,0,1-.11-2.86c0-1.27.1-2.89.22-4.85,0-.49,0-.91,0-1.26s0-.67,0-.93c0-.1.06-.35.12-.77s.13-1,.21-1.77a14.35,14.35,0,0,0,.19-1.46,4.33,4.33,0,0,0,0-1,8.75,8.75,0,0,1,.2-2.61,9.06,9.06,0,0,0,.16-2.84,10.13,10.13,0,0,1-.05-1.18v-2.1c.13-.32.24-.6.31-.82s0-.64,0-1,0-.74-.09-1.16c0-.17,0-.38.06-.65s0-.6.06-1a5.72,5.72,0,0,0,.06-1c0-.28,0-.52-.07-.73a2.69,2.69,0,0,0-.54-1.43,1.17,1.17,0,0,0-1.1-.33,2.83,2.83,0,0,0-.49.16,8.47,8.47,0,0,0-.8.4,4.12,4.12,0,0,0-.88.73,2.28,2.28,0,0,0-.49.83c-.09.37-.18.71-.25,1s-.17.67-.28,1c-.21.76-.39,1.44-.54,2a14.5,14.5,0,0,0-.29,1.48c0,.57,0,1.16-.07,1.78s-.09,1.21-.13,1.8-.09.92-.13,1.4-.16,1.46-.22,2a11.84,11.84,0,0,0-.08,1.52,9.58,9.58,0,0,0,.11,1.5.63.63,0,0,0,.42.52.78.78,0,0,1,.53.68,22.51,22.51,0,0,1,0,3.7,23.54,23.54,0,0,0,0,3.42,3.32,3.32,0,0,0,.13.53,3.13,3.13,0,0,1,.12.5,16.53,16.53,0,0,1-.16,3.45,16.48,16.48,0,0,0-.13,3.76,16.45,16.45,0,0,0,.51,2.49c.18.57.39.89.61,1l.74.29.47.22.51.25A1.3,1.3,0,0,0,229,70a6.07,6.07,0,0,0,.66-.05c.32,0,.66-.11,1-.19a6,6,0,0,0,1.11-.36l1.66-.47a5.85,5.85,0,0,0,1.56-.72c.43-.3.9-.6,1.42-.92l1.68-1a5.06,5.06,0,0,0,1.07-.74,3,3,0,0,0,.69-.93c.17-.4.33-.79.47-1.16a8.23,8.23,0,0,1,.49-1.09v0a15.34,15.34,0,0,1,1.46-1.91,2.09,2.09,0,0,1,1.05-.73c.1,0,.25.07.43.24a5.7,5.7,0,0,1,.68.83l.57.61a3.42,3.42,0,0,1,.39.45,7.48,7.48,0,0,0,2,2.84,5.77,5.77,0,0,0,3.16.1,2.9,2.9,0,0,0,1.1-.55,13.61,13.61,0,0,0,1.66-1.43c.58-.56,1.08-1.06,1.49-1.48a12.84,12.84,0,0,0,1-1.12v0c.13-.28.25-.51.36-.7a3.93,3.93,0,0,0,.23-.44c.8-1,1.58-2,2.35-3A19.26,19.26,0,0,0,260,54.45a9.38,9.38,0,0,0,.83-1.47l.24-.2q.23.07.24.21c-.14.5-.28,1-.41,1.42,0,.7,0,1.4,0,2.09q0,.61,0,1.08a4.91,4.91,0,0,0,0,.71,2.81,2.81,0,0,1-.1.39,8,8,0,0,0-.08,1.85c0,.75.13,1.63.27,2.64a3.27,3.27,0,0,0,.87,2,2.11,2.11,0,0,0,1.81.43,2.63,2.63,0,0,0,1.08-.46A4.55,4.55,0,0,0,265.81,64c.27-.38.53-.77.78-1.16l.78-1.18c.27-.36.52-.68.74-1a8,8,0,0,0,.56-.74,13.72,13.72,0,0,0,1-1,7.39,7.39,0,0,0,.63-.79v0c.13-.27.25-.51.36-.7a2.74,2.74,0,0,0,.23-.43c.8-1,1.58-2,2.35-3a17.85,17.85,0,0,0,1.28-1.67,9.38,9.38,0,0,0,.83-1.47l.24-.19c.15,0,.23.12.24.2-.14.51-.27,1-.4,1.43,0,.69,0,1.39-.05,2.09,0,.41,0,.77,0,1.07a5,5,0,0,0,0,.72,2.81,2.81,0,0,1-.1.39,7.92,7.92,0,0,0-.08,1.84c0,.75.13,1.64.28,2.65a3.21,3.21,0,0,0,.86,2,2.11,2.11,0,0,0,1.81.44,2.66,2.66,0,0,0,1.08-.47,4.24,4.24,0,0,0,1.09-1.16c.27-.38.53-.76.78-1.15l.78-1.19c.27-.36.52-.67.74-1s.42-.52.57-.73c.39-.36.72-.7,1-1a6.3,6.3,0,0,0,.63-.79v0c.37-.45.69-.86.95-1.21s.48-.67.68-.93a1.92,1.92,0,0,1,.38.37,2.15,2.15,0,0,1,.21.4A7.68,7.68,0,0,0,288.88,58a3,3,0,0,0,2.59.82q.45-.06,1.32-.09c.59,0,1-.06,1.3-.1a4.28,4.28,0,0,0,1.6-.59,6.94,6.94,0,0,0,1.5-1.27c.41-.47.81-1,1.21-1.44s.78-1,1.18-1.42v0a3.13,3.13,0,0,1,.47-.65.84.84,0,0,1,.45-.27.64.64,0,0,1,.51.21,4.17,4.17,0,0,1,.57.79c.26.44.5.82.72,1.13a3.27,3.27,0,0,0,2,1.36,4.89,4.89,0,0,0,1.76,0,6.7,6.7,0,0,0,1.25-.31l.25-.1c.47-.22.93-.43,1.4-.62a5.33,5.33,0,0,0,1.38-.87,11.06,11.06,0,0,0,1.27-1.23,9.75,9.75,0,0,0,1.65-2.56l1.13-2.52C313.26,48.41,311,50.08,310.83,50.2Zm-71.35,10,.15.13a1.78,1.78,0,0,1,.17.27l.29.56C239.92,60.91,239.71,60.6,239.48,60.23Zm15-2.17a.87.87,0,0,1,.15.13,1.24,1.24,0,0,1,.17.27c.18.35.35.66.51.94ZM269,56l.09.08a1.27,1.27,0,0,1,.18.27c.12.26.25.49.37.7ZM289,44.46a5.82,5.82,0,0,1,.07-1.35c.09-.63.23-1.46.41-2.49.21-.69.41-1.32.61-1.9s.28-.89.35-1.19a2,2,0,0,0,.08-.64,4.91,4.91,0,0,1,.39-2.54,13.46,13.46,0,0,1,1.83-3l.2.07c0,.35,0,.69-.08,1a5.36,5.36,0,0,0,0,1.06,18.76,18.76,0,0,1-.56,3.18,17.11,17.11,0,0,1-.9,3.15c-.25.63-.48,1.17-.68,1.62a9.17,9.17,0,0,0-.44,1.19,8.26,8.26,0,0,1-.6,1.42c-.18.33-.35.52-.5.56Zm9.81,8.11.28.42c.15.25.27.46.37.65Zm5.36-6.69a.54.54,0,0,1-.42.37.41.41,0,0,1-.29,0c-.05,0-.08-.1-.1-.21a5.12,5.12,0,0,1,.65-2.35c.5-1.1.94-1.67,1.33-1.73a.3.3,0,0,1,.29.1.66.66,0,0,1,.15.37,1.79,1.79,0,0,1-.05.76,3.1,3.1,0,0,1-.36.8l-.46.66a6.42,6.42,0,0,1-.48.65C304.31,45.46,304.23,45.66,304.13,45.88Z"/>
    <path d="M243.77,45.65a6.94,6.94,0,0,1,.81-.08l.86,0a1.19,1.19,0,0,0,.54-.23,5.63,5.63,0,0,0,.93-.73,4.11,4.11,0,0,0,.86-.92,3.16,3.16,0,0,0,.5-1.1c0-.18.1-.48.18-.91s.15-.95.23-1.61c0-.34,0-.76.08-1.26a1,1,0,0,0-.41-.72,1.44,1.44,0,0,0-1-.12,3.35,3.35,0,0,0-1,.26,2.07,2.07,0,0,0-.64.4c-.33.52-.62,1-.87,1.4-.48.13-1,.63-1.5,1.52a3.58,3.58,0,0,0-.67,2.11,4.29,4.29,0,0,0,.4,1.39A1.33,1.33,0,0,0,243.77,45.65Z"/>
    <g>
      <path d="M306.37,211.53a2.75,2.75,0,0,1-.12-.65,7.68,7.68,0,0,0-.07-.86l-.12-.82a1.83,1.83,0,0,0-.45-.81.83.83,0,0,0-.69-.2,5,5,0,0,0-.55.4c-.29-.1-.53-.2-.73-.28a1.32,1.32,0,0,0-.54-.13l-.7.32-.81-.07a6.59,6.59,0,0,0-.78-.05,4.9,4.9,0,0,1-.92,0c-.38,0-.67,0-.86,0a22.8,22.8,0,0,0-2.79.57,15.54,15.54,0,0,0-2.28.81,8.22,8.22,0,0,0-1.93.31,12.34,12.34,0,0,0-2.18.85,3.06,3.06,0,0,0-.94.75,2.49,2.49,0,0,0-.51,1.06,7.39,7.39,0,0,0,0,.95c0,.4,0,.92.09,1.53q-.19.67-.27,1.08a2.34,2.34,0,0,0-.05.57.75.75,0,0,0,.2.44.41.41,0,0,0,.36.12l5.18-2.27c.25-.11.49-.21.72-.29l.67-.26.31-.29a7,7,0,0,1,.71,0l.4.08.22.45c.05.42.09.78.13,1.08l.11.75c0,1,0,1.91,0,2.56a8.57,8.57,0,0,1-.14,1.37c.12.22.23.43.33.65a2.91,2.91,0,0,1-.05.55c-.05.29-.13.66-.24,1.12l.11.41c0,.16.07.31.09.44a5,5,0,0,1,.05.89v1.11c0,.48,0,.89,0,1.21a5.82,5.82,0,0,0,.05.81c.07.47.13,1.08.18,1.82s.09,1.61.11,2.6.07,1.87.13,2.62.13,1.36.2,1.85c.15,1.05.28,2.09.38,3.13.34,1.41.66,2.79.94,4.14l.28.49a1.87,1.87,0,0,0,.16.3,16.38,16.38,0,0,0,.06,1.7.48.48,0,0,0,.3.39,1.62,1.62,0,0,0,.83,0,.53.53,0,0,0,.28-.2l.37-.49a9.45,9.45,0,0,0,.8-.59.89.89,0,0,0,.19-.39,3.79,3.79,0,0,0,.09-.62l-.36-.83c0-.34-.12-.87-.21-1.57s-.14-1.22-.19-1.55a5,5,0,0,1,0-.84,4.42,4.42,0,0,0,0-.86,3.53,3.53,0,0,0-.15-.61,4.42,4.42,0,0,1-.15-.55c.09-.28.16-.53.24-.76,0-.73,0-1.48,0-2.27s0-1.55,0-2.32c0-.53,0-1.05,0-1.55-.06-.27-.13-.54-.2-.8a10.29,10.29,0,0,1,.18-1,6.29,6.29,0,0,0,.14-.81q0-.6.06-1.05a4,4,0,0,0,0-.8c0-.52.11-1,.17-1.4a4.26,4.26,0,0,0,.07-1c0-.32,0-.6-.07-.85a4.68,4.68,0,0,1,0-.64c0-.23,0-.58.06-1s.07-1,.12-1.74a11.27,11.27,0,0,0,0-1.38,12.28,12.28,0,0,0-.09-1.39,3.11,3.11,0,0,0-.11-.49,2.66,2.66,0,0,0-.23-.53,7.72,7.72,0,0,0-.66-1.09,1.76,1.76,0,0,0-.5-.5,2.71,2.71,0,0,1-.5-.33,2.3,2.3,0,0,1-.35-.35c0-.11,0-.21.2-.3a2.62,2.62,0,0,1,.71-.26c.41-.12.89-.27,1.43-.45a12.77,12.77,0,0,0,2,.23,11.08,11.08,0,0,0,2-.12.45.45,0,0,0,.32-.18.57.57,0,0,0,.07-.43A5.17,5.17,0,0,0,306.37,211.53Z"/>
      <path d="M392.68,225.33a6.65,6.65,0,0,0-.64.67c-.19.23-.39.45-.59.66a4.88,4.88,0,0,1-.69.65,1.31,1.31,0,0,1-.57.26c-.52.07-1.25-.3-2.19-1.12a4.11,4.11,0,0,1-1.51-1.9q-.14-1,1.67-4.36c1.2-2.26,1.71-4.06,1.51-5.41a2.16,2.16,0,0,0-.43-1.14,1,1,0,0,0-.92-.26c-.17,0-.4.29-.68.8a19,19,0,0,0-1,2.28c-.69,1.88-1.25,3.3-1.69,4.28a5.25,5.25,0,0,1-.86,1.56,4.43,4.43,0,0,0-2.09,1.4,4.49,4.49,0,0,0-.44,2.53l0,.77c-.23.82-.48,1.57-.72,2.25a17.55,17.55,0,0,1-.79,1.87,1,1,0,0,1-.24.49.69.69,0,0,1-.43.22.24.24,0,0,1-.21-.05.42.42,0,0,1-.1-.25,5.11,5.11,0,0,1,.05-1.09c.07-.55.17-1.31.31-2.28s.31-2,.44-3.06.28-2,.44-3c.19-1.29.39-2.45.62-3.46s.45-1.87.67-2.58a64.09,64.09,0,0,0,2.36-8,15.56,15.56,0,0,0,.42-5,4.53,4.53,0,0,0-.85-2.31,1.72,1.72,0,0,0-1.68-.58.66.66,0,0,0-.38.19,1,1,0,0,0-.28.41c-.26.68-.5,1.4-.73,2.15a15.89,15.89,0,0,0-.53,2.42,2.79,2.79,0,0,1-.17.74l-.21.51q-.19.51-.54,1.83c-.22.88-.5,2-.81,3.42s-.57,2.67-.76,3.59-.31,1.58-.35,2a10.33,10.33,0,0,0-.9,1.92c-.31.83-.63,1.83-1,3a20.92,20.92,0,0,1-.86,2.25,6.75,6.75,0,0,1-1.11,1.7c-.22.28-.42.54-.58.77a3,3,0,0,0-.36.62,3.11,3.11,0,0,1-.17.5,1.35,1.35,0,0,1-.18.25h0a1.58,1.58,0,0,1-.44.45,1.32,1.32,0,0,1-.59.22,1.06,1.06,0,0,1-.86-.27,3.72,3.72,0,0,1-.82-1.12l-1.43-2.86a3.21,3.21,0,0,0-1.25-1.08,2.7,2.7,0,0,0-1.5-.18,3,3,0,0,0-.95.35,7.81,7.81,0,0,0-2.17,1.68,8.12,8.12,0,0,0-.71.83c-.13.19-.24.38-.34.55a2.59,2.59,0,0,1-.22.38,7.1,7.1,0,0,0-.74.92,4.59,4.59,0,0,0-.48,1q-.53.62-.9,1.11a3.78,3.78,0,0,0-.52.91l-.23.36a1,1,0,0,1-.22.24.79.79,0,0,1-.24-.36,2.59,2.59,0,0,1,0-.4,3.05,3.05,0,0,1,.12-.64q.13-.49.3-1c.36-2,.6-3.53.73-4.71a10.79,10.79,0,0,0,.11-2.37,2.81,2.81,0,0,0-.69-1.65,1.61,1.61,0,0,0-1.47-.38,4,4,0,0,0-1.72.67,5.23,5.23,0,0,0-1.39,1.51c-.48.73-.89,1.36-1.25,1.88s-.64,1-.88,1.29l-1.38,2.11-1,1.47q-.45.6-.81,1c-.24.3-.44.54-.59.7l-.33.6c-.09.16-.16.31-.22.44h0a5.6,5.6,0,0,1-.55.27,1.85,1.85,0,0,1-.48.15,1.2,1.2,0,0,1-1.12-.33,2.57,2.57,0,0,1-.55-1.41,4.16,4.16,0,0,0-.24-.79,4.91,4.91,0,0,1-.24-.82,10,10,0,0,0-.22-1.17,2.62,2.62,0,0,0-.22-.61,1,1,0,0,0-.64-.43,2.89,2.89,0,0,0-1.11,0,1.88,1.88,0,0,0-1.28.81,5.59,5.59,0,0,0-.84,2c-.12.21-.24.42-.38.64l-.36.56c-.26.52-.52,1-.76,1.58-.46.74-.85,1.39-1.17,1.93s-.62,1-.89,1.39l-.84.64-.6.47c-.16.08-.33-.11-.49-.56a11.49,11.49,0,0,1-.46-2.16,10.45,10.45,0,0,1-.11-1.75c0-.64,0-1.35.11-2.12.08-.62.18-1.25.28-1.89s.18-1.27.23-1.9q.17-.58.27-1.14c0-.23.07-.45.09-.65a1.82,1.82,0,0,0,0-.46,1.11,1.11,0,0,0-.31-.69.76.76,0,0,0-.64-.16,3,3,0,0,0-.75.32c-.37.2-.87.51-1.52.95-.34.6-.66,1.21-1,1.83s-.6,1.22-.91,1.8-.76,1.18-1.09,1.77-.65,1.16-1,1.74-.74,1.21-1.05,1.69a8.51,8.51,0,0,1-.87,1.15.47.47,0,0,1,0,.27.62.62,0,0,1-.15.21v0a4.9,4.9,0,0,1-.62.57,12.36,12.36,0,0,0-1.45,1.74,7.46,7.46,0,0,1-.9,1,1.8,1.8,0,0,1-.77.42.36.36,0,0,1-.26-.05.25.25,0,0,1-.12-.19,8.65,8.65,0,0,1,.38-3.07,8.76,8.76,0,0,0,.38-3.11,9.65,9.65,0,0,0-1-3.3,4.79,4.79,0,0,0-1.88-1.95c-.1-.05-.25-.13-.46-.22q-.66-.5-1.35-.93a2.33,2.33,0,0,0-1.59-.31,4.55,4.55,0,0,0-2.05,1.21,5.16,5.16,0,0,0-1.47,1.79l.45,1.22a12,12,0,0,1-1.38,3,23.59,23.59,0,0,1-2.69,3.47c-.22.44-.44.87-.67,1.28.27.38.52.76.76,1.13s.44.74.64,1.12a2.17,2.17,0,0,0,.27-.52c.05-.15.09-.26.11-.34a10.12,10.12,0,0,0,1.23-1.27,4,4,0,0,0,.63-1,4.52,4.52,0,0,0,.88-1q.51-.69,1.14-1.74a11.41,11.41,0,0,1,1.18-1.64,7.75,7.75,0,0,1,1.12-1.07,1.68,1.68,0,0,1,1.42.65,4.22,4.22,0,0,1,.74,2.06,12.61,12.61,0,0,1,.07,2.58,25.89,25.89,0,0,1-.43,3.19,6.57,6.57,0,0,1-.21.76q-.13.39-.24.75a6,6,0,0,0-.21.87,2.27,2.27,0,0,0,0,.68,1.13,1.13,0,0,0,.7,1,3.25,3.25,0,0,0,1.7.09,4.49,4.49,0,0,0,1.12-.72c1.21-1,2.25-1.87,3.11-2.63s1.56-1.4,2.09-1.92c.24-.29.45-.54.62-.76s.33-.41.47-.58l0,0a8.07,8.07,0,0,0,.39-.71,3.21,3.21,0,0,0,.2-.5l1.26-1.76.15-.1c.12,0,.23.1.33.35a8.32,8.32,0,0,1,.31,1.13,3.66,3.66,0,0,0,.16.92c.13.5.34,1.19.62,2.07a3.73,3.73,0,0,0,1.26,2,2.68,2.68,0,0,0,2,.44,3.88,3.88,0,0,0,1.67-.74,6.44,6.44,0,0,0,1.62-1.83c.41-.61.81-1.22,1.2-1.84s.78-1.25,1.17-1.89c.19-.28.37-.56.53-.83l.45-.71a4.48,4.48,0,0,1,.52.57,2,2,0,0,1,.32.59,3.89,3.89,0,0,0,1.52,1.84,3.25,3.25,0,0,0,2.24.37A4,4,0,0,0,346,236q.93-.63,2.37-1.8h0a2.37,2.37,0,0,0,.27-.52c.05-.15.09-.26.11-.34l.69-.87a4.59,4.59,0,0,1,.54-.62,3.56,3.56,0,0,0,.53-.61l1-1.4a6.56,6.56,0,0,1,.89-1.14,1.3,1.3,0,0,1,.64-.42.73.73,0,0,1,.44,0,.36.36,0,0,1,.17.27,2.09,2.09,0,0,1,0,.44,4.4,4.4,0,0,1-.09.62c-.06.26-.1.46-.14.62a1.08,1.08,0,0,0,0,.37c-.22,1.52-.41,2.86-.58,4s-.34,2.11-.5,2.88c.13.48.25,1,.39,1.43s.54.65,1.24.55a3.69,3.69,0,0,0,.94-.26,2.11,2.11,0,0,0,.71-.51c.19-.25.39-.49.59-.74l.58-.77c.76-1,1.38-1.93,1.88-2.68a12.36,12.36,0,0,0,1-1.8,1.54,1.54,0,0,1,.62-.71,10.08,10.08,0,0,0,1.51-1.55,7.91,7.91,0,0,1,.91-1,4.26,4.26,0,0,1,.91-.61l.25.05,1.2,1.17a7.91,7.91,0,0,0,.9.79c.36.52.68,1,.94,1.3a3.76,3.76,0,0,0,.64.69,2.53,2.53,0,0,0,1.05.65,2.82,2.82,0,0,0,1.19.1,2.7,2.7,0,0,0,1-.38,4.43,4.43,0,0,0,1-.93l.81-.9.8-.89v0l.41-.82a.93.93,0,0,1,.18-.31c.39-.63.73-1.16,1-1.59s.53-.81.72-1.12l.22.23a6.11,6.11,0,0,1,0,1c0,.38-.05.83-.1,1.34a20.89,20.89,0,0,0-.27,3,17.83,17.83,0,0,0,.17,2.71,2.73,2.73,0,0,0,.79,1.75,2,2,0,0,0,1.65.38,1.5,1.5,0,0,0,1.07-.65,8.91,8.91,0,0,0,.68-1.13l.57-.7a2.92,2.92,0,0,0,.35-.5l.77-1.25.77-1.25a17.29,17.29,0,0,1,1.44-2,14.5,14.5,0,0,1,2.24,1.32c1.4.89,2.37,1.3,2.89,1.22a3.78,3.78,0,0,0,1.47-.57,5.93,5.93,0,0,0,1.36-1.31c.39-.45.77-.91,1.12-1.37s.73-.92,1.12-1.39Zm-66.83,10.85c-.15-.22-.29-.44-.42-.65.25.36.45.68.62.94a5.06,5.06,0,0,1,.35.6C326.22,236.76,326,236.46,325.85,236.18ZM347,232c.36.53.65,1,.88,1.33a7,7,0,0,1,.51.91ZM372,228.39a.93.93,0,0,1,.15.13,1.27,1.27,0,0,1,.18.27,10.43,10.43,0,0,0,.56,1Z"/>
    </g>
    <g>
      <path d="M266.35,160.4a1.82,1.82,0,0,0-2.29-1.58,1.81,1.81,0,0,0-1.58,2.29l.2,1.37a34.73,34.73,0,0,1-.85,13.6,46.47,46.47,0,0,1-5.51,13,39.59,39.59,0,0,1-8.88,10A22.61,22.61,0,0,1,236.62,204a15.16,15.16,0,0,1-13.72-5c-3.66-4-6.15-10.35-7.38-18.87a82.62,82.62,0,0,1-.61-16.69,112.58,112.58,0,0,1,2.55-18,122.64,122.64,0,0,1,5.49-18,90.21,90.21,0,0,1,8.13-16.06c3.8-.11,7.78-.26,11.83-.42a124.36,124.36,0,0,0,12.49-1.18c10.63-1.54,18.45-4.06,23.25-7.47,5-3.52,7.12-7.65,6.45-12.26V90a9.59,9.59,0,0,0-1.74-3.57,10.26,10.26,0,0,0-3.85-3,19,19,0,0,0-6-1.62,31.85,31.85,0,0,0-8.32.26,51.85,51.85,0,0,0-21.28,8.23A73,73,0,0,0,226,107.51c-4.16.06-8.3.18-12.31.36A124.77,124.77,0,0,0,201.18,109a86.29,86.29,0,0,0-14.31,3.35,57.26,57.26,0,0,0-13.61,6.69,41.8,41.8,0,0,0-7.85,6.94,44.13,44.13,0,0,0-5.91,8.44,36.06,36.06,0,0,0-3.41,9.12,25.07,25.07,0,0,0-.43,9,19.26,19.26,0,0,0,3.08,8.05,22.9,22.9,0,0,0,6,6,24.08,24.08,0,0,0,7.71,3.53,21.46,21.46,0,0,0,8.45.45,24.25,24.25,0,0,0,10.44-4.13,34.44,34.44,0,0,0,8-7.63,30.58,30.58,0,0,0,4.78-9.28,21,21,0,0,0,.91-9.26,15.32,15.32,0,0,0-.77-2.78,23.94,23.94,0,0,0-1.5-3.35,12,12,0,0,0-2.07-2.79,3.39,3.39,0,0,0-3-1.07,1.81,1.81,0,0,0-1.59,2.29,1.71,1.71,0,0,0,.81,1.37,9.43,9.43,0,0,1,4.19,6.9,17.07,17.07,0,0,1-.86,7.57,27.92,27.92,0,0,1-4.23,8.07,30.52,30.52,0,0,1-6.91,6.69,20.34,20.34,0,0,1-8.9,3.52,12.89,12.89,0,0,1-6.1-.43,11.62,11.62,0,0,1-4.64-2.89,15.34,15.34,0,0,1-3.16-4.76,23.13,23.13,0,0,1-1.69-6,28.7,28.7,0,0,1,.9-12.17,36.43,36.43,0,0,1,5.8-11.56,52,52,0,0,1,4.19-4.48,38.35,38.35,0,0,1,6.14-4.67,47.08,47.08,0,0,1,8.47-4.06,53,53,0,0,1,11-2.7c3.79-.55,7.71-.93,11.64-1.13,3.42-.17,7-.32,10.52-.44a100.19,100.19,0,0,0-8.14,14.69,120.75,120.75,0,0,0-6.26,17.32,102.41,102.41,0,0,0-3.22,17.33,67.51,67.51,0,0,0,.26,16A50.12,50.12,0,0,0,209.59,190a35.41,35.41,0,0,0,6.83,10.37,26.64,26.64,0,0,0,9.35,6.31A21.73,21.73,0,0,0,237,207.91a27.51,27.51,0,0,0,10.73-3.81,35.33,35.33,0,0,0,8.06-6.92,39.34,39.34,0,0,0,5.73-8.93,55.62,55.62,0,0,0,5.09-18.93,35,35,0,0,0-.11-7.68ZM247.58,93.47a39.72,39.72,0,0,1,18.27-7.55,30,30,0,0,1,6.87-.32,16.75,16.75,0,0,1,4.71,1.06,6.84,6.84,0,0,1,2.74,1.86,5.89,5.89,0,0,1,1.2,2.27c.43,3.08-1.34,5.92-5.39,8.67s-10.93,5-20,6.27c-4.1.6-8.11,1-11.92,1.17-3.31.16-6.69.29-10.07.39A66.22,66.22,0,0,1,247.58,93.47Zm-86.9,59.78a31.73,31.73,0,0,0,1.11,4.92,16.31,16.31,0,0,1-2.23-6.17,23.49,23.49,0,0,1,1.86-12.51c.21-.5.43-1,.65-1.48-.15.5-.3,1-.44,1.5A33.34,33.34,0,0,0,160.68,153.25Zm52,34.48a44.45,44.45,0,0,1-3.08-11.23l-.22-1.51a6.69,6.69,0,0,1-.08-1.38v-.11a73.27,73.27,0,0,1,.37-15.21,92.11,92.11,0,0,1,3.5-16.19A115.57,115.57,0,0,1,217.31,131,122.53,122.53,0,0,0,211,163.57a86.92,86.92,0,0,0,.64,17.15,58.35,58.35,0,0,0,2,8.9Q213.14,188.71,212.73,187.73Z"/>
      <path d="M444.53,77.26A2,2,0,0,0,443,75.47a2.52,2.52,0,0,0-.77,0,2,2,0,0,0-1.29.8l0,0c-1,1.49-3.06,2.72-6.23,3.66a82.77,82.77,0,0,1-11.82,2.48c-4,.58-8.1,1.07-12.27,1.45l.13-.22c1-1.65,2.17-3.9,3.5-6.68a38.16,38.16,0,0,0,2.91-8.17,10.48,10.48,0,0,0-.42-6.86c-1-2-3.32-2.74-7-2.21a17.07,17.07,0,0,0-6.17,2.15,20.94,20.94,0,0,0-5.44,4.8,47.74,47.74,0,0,0-5.14,8c-1.63,3.08-3.38,6.84-5.2,11.16-1.39.13-2.77.28-4.13.44a124.77,124.77,0,0,0,5.11-11.67c1.82-4.91,2.52-9,2.06-12.15a7.35,7.35,0,0,0-2.56-5,6,6,0,0,0-4.76-1.24,18.32,18.32,0,0,0-7.66,2.87,22.18,22.18,0,0,0-6.31,7.33,85.12,85.12,0,0,0-5.95,13.28c-1.34,3.65-2.84,8-4.46,13a9.92,9.92,0,0,0-.83.71,4.65,4.65,0,0,0-1.63,4.19,2.68,2.68,0,0,0,.46,1.13l0,.06-.6,1.92c-2.64,8.43-5.73,18.75-9.19,30.66q-1.26,4.31-2.62,9a53.49,53.49,0,0,1-3.15,6.23,55.34,55.34,0,0,1-4.41,6.39,40.16,40.16,0,0,1-4.41,4.7,7.3,7.3,0,0,1-3.22,2,1.65,1.65,0,0,1-1.49-.88,7.08,7.08,0,0,1-.79-2.36,17.57,17.57,0,0,1,.76-6.89,67.85,67.85,0,0,1,3.12-8.71c1.27-2.95,2.64-5.78,4.08-8.41a53,53,0,0,1,3.75-6.08,1.73,1.73,0,0,0,.32-1.31A2.69,2.69,0,0,0,338,123.2a3.82,3.82,0,0,0-2.79-.5,7.55,7.55,0,0,0-3,1.2,12.23,12.23,0,0,0-2.47,2.22,3.89,3.89,0,0,0-2.36-1.86,9.63,9.63,0,0,0-4.27-.38,20,20,0,0,0-9.51,4.52,42.92,42.92,0,0,0-8.3,8.93,48.14,48.14,0,0,0-4.47,7.88,2.24,2.24,0,0,0-.3.32l-.06.08,0,.09a59.44,59.44,0,0,1-8.19,14.71c-3.44,4.22-5.34,5.28-6.34,5.42a3.51,3.51,0,0,1-1.21,0,3.93,3.93,0,0,1-.2-.72,12.56,12.56,0,0,1,.37-4.34c.43-1.87,1-3.92,1.69-6.09s1.45-4.43,2.25-6.78,1.46-4.53,2-6.62a9.34,9.34,0,0,0,.28-3.28,5.86,5.86,0,0,0-2.48-3.86l0,0,0,0a19.15,19.15,0,0,0-3.23-1.51,21.8,21.8,0,0,1-2.52-1.07,64,64,0,0,0,2-6.79,17.17,17.17,0,0,0,.48-6.26,6.27,6.27,0,0,0-1.92-3.81,4.78,4.78,0,0,0-4.09-1.18A5.3,5.3,0,0,0,276.4,115a9,9,0,0,0-2,2.9,13,13,0,0,0-1,3.66,14.58,14.58,0,0,0,0,3.85,11.11,11.11,0,0,0,1.86,5,15.52,15.52,0,0,0,2.76,2.95c-.75,2-1.56,4-2.42,6-.94,2.2-1.81,4.27-2.55,6.14l-1.85,4.41a1.54,1.54,0,0,0-.28,1.09,2.1,2.1,0,0,0,.72,1.25,1.91,1.91,0,0,0,1.59.47,1.59,1.59,0,0,0,1.53-1.25l1.84-4.4c.86-2,1.74-4.11,2.62-6.14.8-1.84,1.55-3.7,2.21-5.54,1.92.78,3.3,1.33,4,1.61a1.16,1.16,0,0,1,.86.94c.16,1.11-.28,2.65-1.3,4.57s-2.24,4.21-3.59,6.7-2.49,4.8-3.56,7.17a12.44,12.44,0,0,0-1.24,6.86,8,8,0,0,0,3,4.87,8.15,8.15,0,0,0,6.74,1.68c2.71-.39,5.62-2.66,8.9-6.93.94-1.23,1.87-2.57,2.78-4h0c.86,5.91,4.67,8.55,11,7.62a10.38,10.38,0,0,0,6.58-3.75,32.54,32.54,0,0,0,3.57-5.15c.05.18.09.36.15.54a7.78,7.78,0,0,0,1.68,3,8.07,8.07,0,0,0,3.27,2.18,10.86,10.86,0,0,0,5.42.29h0a12.1,12.1,0,0,0,5.3-2.94,40.63,40.63,0,0,0,5.15-5.47q-2.55,8.7-5.4,18.33c-1.69,5.11-3.17,10.14-4.39,15s-1.65,8.92-1.21,11.94c.38,2.68,1.45,4.36,3.17,5a10.61,10.61,0,0,0,5.3.46c4.32-.63,8.25-3.24,11.67-7.76a56,56,0,0,0,8.26-16.74,102.74,102.74,0,0,0,4.33-22,111.68,111.68,0,0,0-.08-21.56,13.31,13.31,0,0,0,9.62,2.51c.35-.05.69-.12,1-.2-.24,1.62-.4,3.13-.48,4.52a26,26,0,0,0,.16,5,7,7,0,0,0,3.06,5.15,7.87,7.87,0,0,0,5.53,1.14,12.4,12.4,0,0,0,5.64-2.53,32.06,32.06,0,0,0,5.37-5.24,54.19,54.19,0,0,0,4.89-7.06,64.3,64.3,0,0,0,4-8,1.83,1.83,0,0,0-.35-2.11,2,2,0,0,0-1.71-.63,1.6,1.6,0,0,0-1.53,1.25,76.67,76.67,0,0,1-3.59,7,50.19,50.19,0,0,1-4.39,6.45,34,34,0,0,1-4.66,4.8,8.81,8.81,0,0,1-4.2,2.11,4.56,4.56,0,0,1-2.65-.47,2.94,2.94,0,0,1-1.48-2.5,22.91,22.91,0,0,1,.07-7c.37-2.34.7-4.2,1-5.52l7.72-12c3.87-5.94,7.91-12.2,12-18.62,4-6.26,7.73-12.32,11.12-18,2.73-.22,5.42-.48,8-.77s5.33-.63,7.83-1c2.2-.32,4.52-.73,6.89-1.21a50.31,50.31,0,0,0,6.67-1.83,22.61,22.61,0,0,0,5-2.41C444.06,79.78,444.73,78.59,444.53,77.26ZM281,123.75c-.42,1.69-.92,3.52-1.51,5.47a10.67,10.67,0,0,1-1-1.28,7.17,7.17,0,0,1-1.05-3,10.86,10.86,0,0,1,.5-5.13c.52-1.51,1.18-2.34,2-2.45a1.37,1.37,0,0,1,1,.22c.12.08.42.38.58,1.43A13,13,0,0,1,281,123.75Zm.52,34.48a29.42,29.42,0,0,0-.8,3.57,10.62,10.62,0,0,1,1-4.32C281.65,157.74,281.57,158,281.51,158.23Zm21.12-4.88a22.84,22.84,0,0,0-.24,6.26,8.13,8.13,0,0,1-.32-1.37,14.79,14.79,0,0,1,.16-4.49,33.63,33.63,0,0,1,1.4-5.29l.31-.72A47.77,47.77,0,0,0,302.63,153.35Zm15.54-2.75a42.78,42.78,0,0,1-4,8.24,7.47,7.47,0,0,1-5.4,3.68c-1.41.2-1.7-.29-1.79-.45a5.86,5.86,0,0,1-.75-2.19,23.91,23.91,0,0,1,.77-8.81,47.32,47.32,0,0,1,3.9-10.31,42,42,0,0,1,6-8.81,12,12,0,0,1,7-4.21c1.15-.17,1.9,0,2.25.5a2.55,2.55,0,0,1,.26,2.13,42.21,42.21,0,0,0-4.7,9.89C320.59,143.9,319.37,147.37,318.17,150.6Zm5.82-1.33a19.73,19.73,0,0,0-.65,7.57c0,.1,0,.19,0,.28a10.14,10.14,0,0,1-.5-1.76,21.37,21.37,0,0,1,.73-9.05,48.39,48.39,0,0,1,3.43-8.73,45.56,45.56,0,0,1,4.2-6.76q.58-.76,1.08-1.38c-.47.85-.95,1.76-1.45,2.72-1.4,2.7-2.72,5.53-3.94,8.43A60.85,60.85,0,0,0,324,149.27ZM391.66,86.6c1.29-3.14,2.53-5.9,3.69-8.22a60.06,60.06,0,0,1,3.37-6c.36-.55.73-1.08,1.1-1.58-.48.8-.95,1.64-1.43,2.53-1,1.94-2.14,4.14-3.29,6.55s-2.52,5.2-4.12,8.31ZM376,69.6a26.42,26.42,0,0,1,3.66-6.75A6.58,6.58,0,0,1,384,60.1l.55-.05c1-.06,1.41.35,1.61.72a7.21,7.21,0,0,1,.78,2.36,18.34,18.34,0,0,1-1.1,7.82,90.28,90.28,0,0,1-4.4,11c-.76,1.6-1.57,3.25-2.43,4.93l-1.58.22c-2.57.37-5.14.84-7.66,1.39l-.41.1C371.35,82.49,373.57,76.15,376,69.6ZM365.36,85.46A128.63,128.63,0,0,1,370.87,72l.58-1.12c-2.46,6.6-4.72,13-6.75,19l-1,.35C364.29,88.54,364.84,87,365.36,85.46ZM367,95.82q.44-1.38.9-2.79a77.26,77.26,0,0,1,8.87-1.89c-.61,1.13-1.24,2.26-1.88,3.41-2.51,4.46-5.08,8.84-7.65,13s-5.14,8.28-7.59,12L357,123.72l1.44-3.9C361.47,112.07,364.35,104,367,95.82ZM358.66,106q1.72-5.62,3.31-10.49a8.21,8.21,0,0,1,1.11-.73c-2.48,7.65-5.1,15.2-7.8,22.45C356.47,113.22,357.61,109.46,358.66,106Zm-6.49,79.2a52.79,52.79,0,0,1-2.74,5.78c.75-1.5,1.42-2.92,2-4.21.36-.79.67-1.49.95-2.09Zm21.44-50.48a3.81,3.81,0,0,0-.55.76,2.62,2.62,0,0,1-2,1,11,11,0,0,1-5.15-.78c-1.93-.7-3.63-2.36-5.06-5l0-.06,0-.06a2,2,0,0,0-1.92-.81,1.7,1.7,0,0,0-1.63,2l.36,2.48a71,71,0,0,1,.75,11.84,72.25,72.25,0,0,1-1.2,11.37,94.72,94.72,0,0,1-3,11.59c-1.29,4-2.89,8.21-4.74,12.63-.86,1.93-1.85,4.05-2.93,6.31a59.22,59.22,0,0,1-3.58,6.42,35.45,35.45,0,0,1-3.93,5.11,6.71,6.71,0,0,1-3.68,2.26,2.8,2.8,0,0,1-1.43-.1s-.35-.21-.56-1.63a17.9,17.9,0,0,1,.21-5.08c.34-2.13.82-4.45,1.44-6.89s1.32-5,2.11-7.67,1.61-5.26,2.44-7.79v0c1.21-4.57,2.38-8.71,3.48-12.3s2.3-7,3.56-10.09,2.68-6.17,4.2-9.06,3.37-6.05,5.49-9.33c4.63-7.2,9.2-14.37,13.57-21.32S378,97,381.21,91l.27-.52,1.24-.18c1.07-.16,2.18-.29,3.31-.41a218.75,218.75,0,0,0-7.13,21.71C376.89,118.84,375.11,126.62,373.61,134.74Zm19.54-29.95c-3.82,5.92-7.64,11.9-11.33,17.73l-1.19,1.78c.44-1.36.92-2.77,1.43-4.22,1.18-3.39,2.48-6.92,3.87-10.52s2.86-7.2,4.4-10.73c1.46-3.37,3-6.64,4.5-9.74l8.47-.66C400.16,93.72,396.75,99.21,393.15,104.79ZM407.34,81.6l-1.6,2.72L397,85a137.65,137.65,0,0,1,8.87-15.65c2.45-3.55,4.7-5.49,6.66-5.78a1,1,0,0,1,1.1.44c.18.26.43,1,.15,2.71a27.58,27.58,0,0,1-1.89,5.86A88,88,0,0,1,407.34,81.6Z"/>
    </g>
    <g>
      <path d="M367,29.24c-4,.58-6.84,2.34-6.58,4.08s3.46,2.63,7.47,2l1-.19,68.95-12.35c.53-.09.91-.47.86-.86a.89.89,0,0,0-1.07-.57L368,29.12ZM362.34,33c-.23-1.62,2.87-2.32,4.79-2.6,2.64-.38,8.05-.92,8.28.7s-5.1,2.64-7.74,3C365.76,34.44,362.52,34.28,362.34,33Z"/>
      <path d="M356.71,23.18c-3.25-1.47-3.64-5.25-2.37-8.2,1.19-2.75,4.55-3.79,7.32-3.45,4.09.51,6.36,4.92,7.61,8.35.3.81.56,1.63.79,2.46C365.79,24.41,360.74,25,356.71,23.18ZM331.34,49.63c-7.07-5.27-10.5-14.57-10.25-23.19.13-4.59,2.14-9.11,6.69-10.72,4.06-1.44,9.42.35,12.58,3,5.67,4.85,2.13,13.77-.71,19.13A55.12,55.12,0,0,1,331.34,49.63Zm46-46.42c-.48-.57-1.4.13-.92.72,5.46,6.8,1.41,14-5.06,17.71-1.31-5-3.92-10.13-8.74-11.26a8.4,8.4,0,0,0-9.48,4.09,7.23,7.23,0,0,0,3.56,10.07c4.08,1.82,9.35,1,13.64-1,1.82,8,.28,16.32-5.4,22.56-7.87,8.65-23,10.64-32.72,4.17a3.81,3.81,0,0,1-.32-.24,55.2,55.2,0,0,0,9.9-14.24c3.18-6.52,4.56-15.17-2.58-19.55-3.8-2.34-8.9-3.23-13.08-1.49s-6.11,6.47-6.51,10.75a29.35,29.35,0,0,0,10.67,25.17A35.66,35.66,0,0,1,326,54.45,23.84,23.84,0,0,1,323.58,56c-.85.5-1.71,1-2.58,1.45s-1.83,1-2.76,1.42c-2.64,1.33-5.35,2.55-8.08,3.69a159,159,0,0,1-16.76,6,192,192,0,0,1-34.9,6.81,214.6,214.6,0,0,1-35.58.55c-5.35-.37-10.69-.9-16-1.63,0,0,0,0-.05.07q8,1.13,16,1.69a213.89,213.89,0,0,0,35.61-.4,192.8,192.8,0,0,0,35-6.68A162.39,162.39,0,0,0,310.35,63c2.74-1.14,5.46-2.36,8.13-3.68,1.76-.87,3.49-1.78,5.19-2.75.84-.48,1.68-.95,2.48-1.49a26.61,26.61,0,0,0,2.24-1.72c.43-.35.85-.73,1.27-1.09.1-.11,1.17-1.14,1.22-1.14.31.23.64.47,1,.69,8.57,5.71,20.7,4.5,29.22-.63,8-4.85,12.14-14.07,11.38-23.23a38.52,38.52,0,0,0-.76-5,20.7,20.7,0,0,0,2.68-1.68C380.34,16.81,382.31,9.12,377.36,3.21Z"/>
      <path d="M182.61,100.91l-.53-.46a4,4,0,0,1,.4-.42l2.74-2.45a.35.35,0,0,1,.47.53L183,100.55C182.84,100.65,182.73,100.78,182.61,100.91Zm-2.16-.87a.33.33,0,0,1-.3-.18l.3-.17-.31.17a.39.39,0,0,1-.06-.18c-.11-1.38-.23-2.74-.34-4.1v-.11a.36.36,0,0,1,.71,0v.1c.11,1.34.22,2.67.32,4a.35.35,0,0,1-.15.46A.33.33,0,0,1,180.45,100Zm7.62-4.19a.35.35,0,0,1-.26-.12.34.34,0,0,1,0-.49L191,92.41a.35.35,0,0,1,.48.52l-3.13,2.83A.36.36,0,0,1,188.07,95.85Zm24.39-2a2.75,2.75,0,0,1-.93-.22c-.15-.05-.29-.1-.42-.13L208.68,93a.36.36,0,0,1-.26-.43.36.36,0,0,1,.43-.26l2.42.58a2.77,2.77,0,0,1,.49.15c.35.12.71.24.9.13a.35.35,0,0,1,.49.12.36.36,0,0,1-.12.48A1.1,1.1,0,0,1,212.46,93.87ZM179.8,92.3a.35.35,0,0,1-.35-.33c-.12-1.4-.22-2.81-.32-4.21a.35.35,0,0,1,.7-.05c.1,1.4.21,2.8.32,4.21a.36.36,0,0,1-.32.38Zm25.55-.16h-.09l-4.1-1a.36.36,0,0,1-.26-.43.36.36,0,0,1,.43-.26l4.1,1a.35.35,0,0,1,.26.42A.36.36,0,0,1,205.35,92.14Zm-11.54-1.47a.35.35,0,0,1-.21-.63,3.92,3.92,0,0,1,3.54-.61l.78.19a.36.36,0,0,1-.17.69l-.78-.2a3.23,3.23,0,0,0-2.95.49A.33.33,0,0,1,193.81,90.67Zm18.39,0a.36.36,0,0,1-.32-.21c-.56-1.29-1.12-2.58-1.69-3.87a.36.36,0,0,1,.19-.46.35.35,0,0,1,.46.18l1.69,3.87a.36.36,0,0,1-.19.46A.32.32,0,0,1,212.2,90.62Zm-33-6a.35.35,0,0,1-.34-.28A3.37,3.37,0,0,0,177,82l-.76-.42a.36.36,0,0,1-.14-.48.35.35,0,0,1,.48-.14l.77.42a4.13,4.13,0,0,1,2.2,2.75.37.37,0,0,1-.27.43Zm29.93-1.06a.36.36,0,0,1-.32-.21c-.57-1.29-1.13-2.57-1.71-3.85a.36.36,0,0,1,.65-.29L209.43,83a.36.36,0,0,1-.18.47A.4.4,0,0,1,209.1,83.54Zm-35.78-3.62a.33.33,0,0,1-.17,0l-3.66-2.1a.35.35,0,1,1,.35-.61l3.66,2.1a.35.35,0,0,1,.13.48A.37.37,0,0,1,173.32,79.92Zm33.06-3.55h0A.35.35,0,0,1,206,76a4,4,0,0,1,.62-1.72c.45-.71.9-1.43,1.34-2.15a.35.35,0,0,1,.49-.11.35.35,0,0,1,.11.48c-.44.72-.89,1.44-1.34,2.16a3.29,3.29,0,0,0-.52,1.41A.35.35,0,0,1,206.38,76.37Zm-39.76-.31a.33.33,0,0,1-.17,0l-1.93-1.12-.33-.17c-.5-.25-1.19-.59-1.19-1.37v-.07a.35.35,0,0,1,.37-.34.35.35,0,0,1,.33.37v0c0,.32.31.49.8.74a3.2,3.2,0,0,1,.37.19l1.93,1.12a.35.35,0,0,1,.13.48A.36.36,0,0,1,166.62,76.06ZM166.25,72a.35.35,0,0,1-.14-.68L170,69.68a.35.35,0,1,1,.27.65L166.39,72Zm43.89-2.33a.45.45,0,0,1-.19,0,.37.37,0,0,1-.11-.49l2.2-3.59a.35.35,0,1,1,.6.36c-.73,1.2-1.46,2.4-2.2,3.6A.35.35,0,0,1,210.14,69.66ZM173.38,69a.34.34,0,0,1-.32-.22.35.35,0,0,1,.19-.46l3.91-1.59a.36.36,0,0,1,.46.2.36.36,0,0,1-.2.46q-1.95.78-3.9,1.59Zm6.79-3.45a.41.41,0,0,1-.18,0,.37.37,0,0,1-.12-.49,3.75,3.75,0,0,0,.44-1.2c.19-.92.38-1.84.58-2.75a.34.34,0,0,1,.41-.27.34.34,0,0,1,.28.41c-.2.92-.39,1.84-.58,2.75a4.47,4.47,0,0,1-.52,1.43A.37.37,0,0,1,180.17,65.56Zm34-2.5A.31.31,0,0,1,214,63a.35.35,0,0,1-.12-.48l.69-1.14c.09-.13.19-.26.29-.38a1.22,1.22,0,0,0,.33-.57.35.35,0,0,0-.06-.18s-.09-.1-.28-.1a2.27,2.27,0,0,0-.42.05.36.36,0,0,1-.13-.7,3.43,3.43,0,0,1,.55-.06,1,1,0,0,1,.87.43,1,1,0,0,1,.17.56,1.64,1.64,0,0,1-.49,1,2.58,2.58,0,0,0-.22.31l-.7,1.13A.34.34,0,0,1,214.17,63.06Zm-15.08-1.28H199a.36.36,0,0,1-.35-.36.36.36,0,0,1,.36-.35h.11a9.56,9.56,0,0,0,1.15-.07l2.89-.34a.35.35,0,0,1,.08.7l-2.88.34A11.17,11.17,0,0,1,199.09,61.78Zm7.57-.79a.35.35,0,0,1,0-.7l4.2-.42a.36.36,0,0,1,.38.32.36.36,0,0,1-.32.39L206.7,61Zm-10.94-.34a.3.3,0,0,1-.22-.08,7.15,7.15,0,0,1-1.14-1.18c-.51-.66-1.05-1.34-1.64-2.07a.36.36,0,1,1,.55-.45c.59.74,1.14,1.42,1.65,2.09a6.57,6.57,0,0,0,1,1.07.34.34,0,0,1,.05.49A.32.32,0,0,1,195.72,60.65ZM182,58.06h-.08a.35.35,0,0,1-.27-.42l.9-4.12a.35.35,0,0,1,.69.15l-.9,4.12A.35.35,0,0,1,182,58.06Zm8.77-3.31a.36.36,0,0,1-.27-.12c-.9-1.06-1.81-2.11-2.73-3.16l0,0a.35.35,0,0,1,0-.5.36.36,0,0,1,.5,0l0,0L191,54.17a.36.36,0,0,1,0,.5A.34.34,0,0,1,190.74,54.75Zm-7.12-4.25h-.08a.36.36,0,0,1-.27-.42l.19-.86c0-.12,0-.25.06-.38,0-.5.13-1.17.8-1.39a1.19,1.19,0,0,1,.37-.06c.61,0,1,.49,1.25.88l0,.07a.34.34,0,0,1-.08.49.35.35,0,0,1-.49-.08l0-.06c-.31-.43-.51-.67-.82-.57s-.27.31-.32.8c0,.15,0,.31-.07.45l-.19.86A.34.34,0,0,1,183.62,50.5Z"/>
      <path d="M187.31,81.71c-.12-1.57-.26-3.11-.36-4.65a1.24,1.24,0,0,0-.7-1.13c-1.35-.74-2.68-1.52-4-2.29-.17-.1-.43-.18-.43-.4s.31-.29.5-.38c1.44-.6,2.88-1.21,4.33-1.78a1.11,1.11,0,0,0,.74-.89c.33-1.57.68-3.14,1-4.71,0-.17,0-.42.2-.48s.35.18.47.32c1,1.11,1.93,2.19,2.82,3.35a1.79,1.79,0,0,0,1.82.7c1.47-.18,2.94-.32,4.41-.46.16,0,.37-.1.47,0s-.09.33-.18.48q-1.26,2.09-2.55,4.15a1.1,1.1,0,0,0-.07,1.11q1,2.16,1.92,4.34c.08.2.29.42.1.62s-.39,0-.58,0c-1.52-.36-3-.72-4.56-1.1a1.19,1.19,0,0,0-1.19.29c-1.13,1.05-2.28,2.07-3.43,3.1-.16.15-.31.41-.55.35S187.42,81.86,187.31,81.71Z"/>
    </g>
  </g>
</svg>
