<svg id="Layer_1" data-name="Layer 1" xmlns="http://www.w3.org/2000/svg" viewBox="0 0 100 100">
  <defs>
    <style>
      .cls-1 {
        fill: #f37;
      }
    </style>
  </defs>
  <title>Pro designers</title>
  <path class="cls-1" d="M89.42,36.18l-4-4a3.62,3.62,0,0,0-5.12,0l-.55.55a32.44,32.44,0,0,0-18-5.45h-.07A32.48,32.48,0,0,0,50,29.34l7.08-7.09a6.75,6.75,0,0,0,9.63-6.09,6.59,6.59,0,0,0-2-4.75,6.71,6.71,0,0,0-4.75-2,6.6,6.6,0,0,0-4.76,2,6.72,6.72,0,0,0-1.33,7.65L41.1,31.82l-.43-.44a3.63,3.63,0,0,0-5.13,0l-4.09,4.08a3.62,3.62,0,0,0,0,5.12l.43.44L19.12,53.78a6.5,6.5,0,0,0-2.89-.65A6.74,6.74,0,1,0,21,64.62,6.72,6.72,0,0,0,22.3,57l7.09-7.09a32.86,32.86,0,0,0,3.34,29.75l-.68.68a3.65,3.65,0,0,0,0,5.14l4.06,4.06a3.62,3.62,0,0,0,5.12,0l4.06-4.06a3.63,3.63,0,0,0,0-5.14l-4.06-4.06a3.62,3.62,0,0,0-5.12,0l-.12.12a28.42,28.42,0,0,1,.78-30.93,3.44,3.44,0,0,0,1.32.25,3.62,3.62,0,0,0,2.56-1.06l4.06-4.06a3.63,3.63,0,0,0,.81-3.88,28.38,28.38,0,0,1,30.93-.78l-.25.25a3.65,3.65,0,0,0,0,5.14l4.06,4.06a3.62,3.62,0,0,0,5.12,0l4.06-4.06A3.59,3.59,0,0,0,89.42,36.18ZM41.5,82.9l-2.85,2.85L35.81,82.9l2.84-2.84ZM58.33,14.6a2.23,2.23,0,1,1,0,3.16h0a2.25,2.25,0,0,1,0-3.16ZM17.81,61.46a2.23,2.23,0,0,1-3.16-3.16,2.23,2.23,0,1,1,3.16,3.16ZM38.07,40.87,35.23,38l2.84-2.84,1.42,1.41h0L40.9,38Zm44.73.71L80,38.74l2.84-2.85,2.85,2.85Z"/>
</svg>
