<svg id="Layer_1" data-name="Layer 1" xmlns="http://www.w3.org/2000/svg" viewBox="0 0 100 100">
  <defs>
    <style>
      .cls-1 {
        fill: #f37;
      }
    </style>
  </defs>
  <title>Progress</title>
  <g>
    <path class="cls-1" d="M86.33,19.35H13.67a2.53,2.53,0,0,0,0,5h4.66v40a2.52,2.52,0,0,0,2.52,2.52H43.91L34.76,76a2.55,2.55,0,0,0,0,3.57,2.65,2.65,0,0,0,3.57,0l9.15-9.15v7.68a2.52,2.52,0,1,0,5,0V70.44l8.82,8.83a2.54,2.54,0,0,0,3.57,0,2.51,2.51,0,0,0,.74-1.8,2.55,2.55,0,0,0-.74-1.78l-8.82-8.81H79.15a2.52,2.52,0,0,0,2.52-2.52v-40h4.66a2.53,2.53,0,0,0,0-5Zm-9.7,5V61.83H23.37V24.4Z"/>
    <path class="cls-1" d="M29.08,56.55a2.13,2.13,0,0,0,1.75.08,2.34,2.34,0,0,0,1.28-1.23l4-9.09,9,5a2.21,2.21,0,0,0,3-.75l5.06-7.68,8.59,2.45a2.23,2.23,0,0,0,2.57-1.1L71.55,31a2.42,2.42,0,0,0-.84-3.22,2.16,2.16,0,0,0-1.7-.24A2.28,2.28,0,0,0,67.6,28.7L61.24,40.28l-8.45-2.41a2.22,2.22,0,0,0-2.48.94l-4.82,7.33L36.12,41a2.18,2.18,0,0,0-1.8-.15A2.3,2.3,0,0,0,33,42.06L28,53.43a2.41,2.41,0,0,0-.07,1.79A2.29,2.29,0,0,0,29.08,56.55Z"/>
  </g>
</svg>
