<svg id="Layer_1" data-name="Layer 1" xmlns="http://www.w3.org/2000/svg" viewBox="0 0 600 250">
  <title>PTS</title>
  <g>
    <g>
      <circle cx="249.15" cy="140.35" r="11" transform="translate(-34.74 106.03) rotate(-22.5)"/>
      <circle cx="249.15" cy="109.64" r="11" transform="translate(-22.99 103.69) rotate(-22.5)"/>
    </g>
    <g>
      <path d="M192.78,124.68v.07a3.49,3.49,0,0,1,0,.56c0,.17,0,.35,0,.52a8.92,8.92,0,1,1-17.83,0c0-.17,0-.34,0-.51a3.62,3.62,0,0,1,0-.57V102.08H161v23a23.51,23.51,0,0,0,1.84,9.34,20.79,20.79,0,0,0,5,6.89,23.89,23.89,0,0,0,7.27,4.88,21.94,21.94,0,0,0,8.77,1.79,26,26,0,0,0,5.56-.61,17,17,0,0,0,3.28-1v26.31l14-9.91V102.08H192.78Z"/>
      <path d="M79,108.77a23.07,23.07,0,0,0-7.26-4.9,21.91,21.91,0,0,0-8.79-1.8A21.68,21.68,0,0,0,54,103.92a23.56,23.56,0,0,0-12.19,12.19,21.47,21.47,0,0,0-1.85,8.8v47.65l14.06-9.9V146.31a23.92,23.92,0,0,0,8.87,1.61,22.83,22.83,0,0,0,9-1.8,22.54,22.54,0,0,0,7.27-4.91A23.77,23.77,0,0,0,84,133.78a22.78,22.78,0,0,0,1.75-8.87A21.85,21.85,0,0,0,83.92,116,23.78,23.78,0,0,0,79,108.77Zm-16.1,25.17a8.95,8.95,0,1,1,8.95-9A9,9,0,0,1,62.88,133.94Z"/>
      <rect x="90.88" y="77.43" width="14.12" height="70.49"/>
      <path d="M150.09,109.65a22.44,22.44,0,0,0-6.4-5,22,22,0,0,0-7.94-2.45,9.28,9.28,0,0,0-1.36-.1h-1.33l-.9,0h-.36l-1.07.08a21.51,21.51,0,0,0-9,2.91c-.18.09-.35.2-.53.31s-.45.28-.69.45A22.9,22.9,0,0,0,142,146.08v1.84h13.9v-25a22.94,22.94,0,0,0-5.14-12.51Zm-17,24.31a9,9,0,1,1,9-9A9,9,0,0,1,133.06,134Z"/>
    </g>
    <g>
      <path d="M400.26,102.06c-12.44,0-22.56,10.35-22.56,23.08a22.81,22.81,0,0,0,22.78,22.78A20.84,20.84,0,0,0,412.74,144a25.31,25.31,0,0,0,8.74-11l.26-.6h-14.2c-1.74,2.17-3.61,3.62-7.06,3.62-4.54,0-8.07-2.63-9-6.63h31.1l.14-.93a16,16,0,0,0,.25-3C423,112.14,413.2,102.06,400.26,102.06Zm-8.57,17.7c.61-1.8,2.65-5.88,8.64-5.88s8,4.08,8.64,5.88Z"/>
      <path d="M451,102.11A22.91,22.91,0,1,0,473.89,125,22.94,22.94,0,0,0,451,102.11ZM451,134a9,9,0,1,1,9-9A9,9,0,0,1,451,134Z"/>
      <path d="M365.76,108.73a23.59,23.59,0,0,0-7.27-4.88,21.93,21.93,0,0,0-8.76-1.79,25.42,25.42,0,0,0-5.57.61,17.22,17.22,0,0,0-3.28,1V77.44l-14,0v70.5h13.93V125.73a3.51,3.51,0,0,1,0-.56c0-.17,0-.34,0-.52a8.92,8.92,0,0,1,17.83,0c0,.18,0,.35,0,.52a11.22,11.22,0,0,1,0,1.16v21.59h13.94V125.46a23.56,23.56,0,0,0-1.84-9.35A23,23,0,0,0,365.76,108.73Z"/>
      <path d="M306.06,77.45H291.6v47.28a23.73,23.73,0,0,0,2,9.52,22.41,22.41,0,0,0,5.22,7.34,23.26,23.26,0,0,0,7.61,4.7c2.45.94,5.55,1.5,14.13,1.61l1.17,0v-14.2l-6.74-.06c-4.94,0-8.69-3.36-8.9-7.93v-.15a8.14,8.14,0,0,1-.05-.87v-8.35h15.69V102.07H306.06Z"/>
      <path d="M493.24,103.85A23.06,23.06,0,0,0,481,115.52a21.8,21.8,0,0,0-2,8.64v23.76h14.13v-23a8.76,8.76,0,0,1,.74-3.54,9.46,9.46,0,0,1,1.93-2.83,9.36,9.36,0,0,1,1.43-1.13c1.37-1,3.33-1.48,10.79-1.64l1.14,0V102.08l-1.18,0C497.71,102.29,495.47,102.92,493.24,103.85Z"/>
      <path d="M546.07,102.07v22.67a3.49,3.49,0,0,1,0,.56c0,.17,0,.34,0,.51a8.92,8.92,0,1,1-17.83,0c0-.17,0-.34,0-.51a3.51,3.51,0,0,1,0-.56V102.08H514.28V125a23.59,23.59,0,0,0,1.83,9.35,21,21,0,0,0,5,6.88,23.71,23.71,0,0,0,7.27,4.88,22,22,0,0,0,8.77,1.79,25.33,25.33,0,0,0,5.56-.61,17,17,0,0,0,3.28-1.05v26.31l14-9.91V102.07Z"/>
    </g>
  </g>
</svg>
