<svg id="Layer_1" data-name="Layer 1" xmlns="http://www.w3.org/2000/svg" viewBox="0 0 100 100">
  <defs>
    <style>
      .cls-1 {
        fill: #f37;
      }
    </style>
  </defs>
  <title>QA0</title>
  <g>
    <path class="cls-1" d="M84.5,31.65v-.08c0-.76-.06-1.57-.08-2.48A8.91,8.91,0,0,0,76,20.35c-9.12-.51-16.16-3.48-22.25-9.41a5.56,5.56,0,0,0-7.6.06c-6,5.87-13.07,8.84-22.19,9.35a8.93,8.93,0,0,0-8.4,8.74c0,.9,0,1.71-.08,2.49v.15c-.18,9.44-.4,21.19,3.54,31.89a40.92,40.92,0,0,0,9.79,15.25A51.1,51.1,0,0,0,48,90.19a6,6,0,0,0,.83.22,6.16,6.16,0,0,0,2.42,0,5.75,5.75,0,0,0,.84-.22,51.19,51.19,0,0,0,19.1-11.33,40.8,40.8,0,0,0,9.79-15.25C84.9,52.88,84.68,41.1,84.5,31.65Zm-8.76,30C71.65,72.76,63.3,80.37,50.13,85a.53.53,0,0,1-.25,0l-.1,0C36.68,80.38,28.33,72.77,24.25,61.7c-3.58-9.72-3.38-20.42-3.2-29.91,0-.81.06-1.67.08-2.61a3.35,3.35,0,0,1,3.16-3.29,41.45,41.45,0,0,0,14.16-3.12A36.76,36.76,0,0,0,50,15a37,37,0,0,0,11.55,7.76,41.45,41.45,0,0,0,14.16,3.12,3.35,3.35,0,0,1,3.16,3.29c0,.94,0,1.8.08,2.6C79.13,41.23,79.33,51.94,75.74,61.69Z"/>
    <path class="cls-1" d="M50,29.59A20.42,20.42,0,1,0,70.41,50,20.43,20.43,0,0,0,50,29.59ZM64.86,50A14.86,14.86,0,1,1,50,35.14,14.88,14.88,0,0,1,64.86,50Z"/>
    <path class="cls-1" d="M55.45,43.5l-9,9-2.22-2.22a2.78,2.78,0,0,0-3.93,3.93l4.19,4.18a2.78,2.78,0,0,0,3.92,0L59.37,47.42a2.78,2.78,0,0,0,0-3.92A2.83,2.83,0,0,0,55.45,43.5Z"/>
  </g>
</svg>
