<svg id="Layer_1" data-name="Layer 1" xmlns="http://www.w3.org/2000/svg" viewBox="0 0 100 100">
  <defs>
    <style>
      .cls-1 {
        fill: #f37;
      }
    </style>
  </defs>
  <title>Revisions</title>
  <g>
    <path class="cls-1" d="M42.48,62.92a2.65,2.65,0,0,0-3.72.53,16.06,16.06,0,0,1-12.91,6.43H20.51a2.66,2.66,0,0,0,0,5.32h5.35A21.44,21.44,0,0,0,43,66.64,2.66,2.66,0,0,0,42.48,62.92Z"/>
    <path class="cls-1" d="M47.06,36.86h0a2.74,2.74,0,0,0,3.73-.47,16.05,16.05,0,0,1,12.76-6.26h9.51L68.3,34.9a2.66,2.66,0,0,0,0,3.76,2.67,2.67,0,0,0,1.87.79,2.62,2.62,0,0,0,1.88-.79l9.32-9.32a2.66,2.66,0,0,0,0-3.76l-9.32-9.32a2.72,2.72,0,0,0-3.77,0,2.67,2.67,0,0,0,0,3.77l4.77,4.76h-9.5a21.39,21.39,0,0,0-17,8.34A2.7,2.7,0,0,0,47.06,36.86Z"/>
    <path class="cls-1" d="M72.06,61.35a2.66,2.66,0,0,0-3.76,0,2.66,2.66,0,0,0,0,3.76l4.77,4.77H63.56A16.16,16.16,0,0,1,47.42,53.73V46.28A21.5,21.5,0,0,0,26,24.81H20.6a2.66,2.66,0,0,0,0,5.32H26A16.17,16.17,0,0,1,42.1,46.28v7.45A21.49,21.49,0,0,0,63.56,75.2h9.51L68.3,80a2.67,2.67,0,0,0,0,3.77,2.7,2.7,0,0,0,1.87.78,2.66,2.66,0,0,0,1.88-.78l9.32-9.32a2.67,2.67,0,0,0,0-3.77Z"/>
  </g>
</svg>
