<svg id="Layer_1" data-name="Layer 1" xmlns="http://www.w3.org/2000/svg" viewBox="0 0 100 100">
  <defs>
    <style>
      .cls-1 {
        fill: #f37;
      }
    </style>
  </defs>
  <title>Submit requests</title>
  <g>
    <path class="cls-1" d="M34,68.08a11.3,11.3,0,1,0-13.86,0,13.58,13.58,0,0,0-6.66,11.7v4.58a2.14,2.14,0,0,0,2.14,2.14H38.55a2.14,2.14,0,0,0,2.14-2.14V79.78A13.59,13.59,0,0,0,34,68.08Zm-14-8.92a7,7,0,1,1,7,7A7,7,0,0,1,20.07,59.16ZM36.41,82.22H17.78V79.78a9.32,9.32,0,1,1,18.63,0v2.44Z"/>
    <path class="cls-1" d="M77.49,13.5H50a9,9,0,0,0-9,9V63.74a2.14,2.14,0,0,0,3.42,1.72L53,59H77.49a9,9,0,0,0,9-9V22.51A9,9,0,0,0,77.49,13.5ZM82.22,50a4.72,4.72,0,0,1-4.73,4.73H52.29a2.12,2.12,0,0,0-1.28.43l-5.74,4.31v-37A4.72,4.72,0,0,1,50,17.78H77.49a4.72,4.72,0,0,1,4.73,4.73Z"/>
    <path class="cls-1" d="M75.2,25H52.29a2.14,2.14,0,0,0,0,4.28H75.2a2.14,2.14,0,1,0,0-4.28Z"/>
    <path class="cls-1" d="M75.2,34.12H52.29a2.14,2.14,0,1,0,0,4.27H75.2a2.14,2.14,0,1,0,0-4.27Z"/>
    <path class="cls-1" d="M63.74,43.28H52.29a2.14,2.14,0,0,0,0,4.28H63.74a2.14,2.14,0,0,0,0-4.28Z"/>
  </g>
</svg>
