<svg id="Layer_1" data-name="Layer 1" xmlns="http://www.w3.org/2000/svg" viewBox="0 0 600 250">
  <title>TNP</title>
  <g>
    <g>
      <path d="M218.16,7v6.51H203.57V78.2h-7.69V13.51h-14.6V7Z"/>
      <path d="M233.15,7V37.77h20.91V7h7.69V78.2h-7.69V44.27H233.15V78.2h-7.69V7Z"/>
      <path d="M307.31,7v6.51H282.46V37.77H300.8v6.5H282.46V71.69h26V78.2H274.77V7Z"/>
      <path d="M201.51,88.38l18.05,49.37h.24V88.38h13.39v86.3H220.28l-18.89-53.91h-.24v53.91H187.77V88.38Z"/>
      <path d="M264.38,88.38v86.3H249.56V88.38Z"/>
      <path d="M294.5,88.38l18.05,49.37h.24V88.38h13.39v86.3H313.27l-18.89-53.91h-.23v53.91H280.76V88.38Z"/>
      <path d="M359.41,88.38v69.21c0,10.87-4.3,18.29-21.16,18.29h-4.54V163h2.87c7.65,0,8-4.19,8-6.94V88.38Z"/>
      <path d="M402.32,88.38l15.9,86.3H403.87l-2.63-19.13H385l-2.63,19.13H368l15.9-86.3ZM393,105.59l-5.86,37.06h11.95l-5.85-37.06Z"/>
      <path d="M198.49,185.8c8.59,0,14.77,5.7,14.77,15.94,0,9.38-6.8,15-14.69,15h-7.51v25.48H185V185.8Zm-.78,25.79c5.7,0,9.45-3.21,9.45-10.32S203.41,191,197.55,191h-6.49v20.63Z"/>
      <path d="M234.2,185.8c9.07,0,15.32,5.62,15.32,14.61,0,6.72-3.13,11.64-9.07,13.83l9.54,28h-6.41l-9.06-26.73-8,.32v26.41h-6.09V185.8Zm-2,24.69c7.19,0,11.25-2.58,11.25-9.77S239.59,191,232.25,191h-5.71v19.53Z"/>
      <path d="M289.85,214c0,19.22-5.4,29-16,29S258,233.23,258,214c0-19.38,5.55-29,15.94-29S289.85,194.63,289.85,214Zm-16,23.83c7,0,9.85-8,9.85-23.83,0-11.8-1.41-23.84-10-23.84-7.82,0-9.69,11.18-9.69,23.84C264.06,230.57,267.26,237.84,273.9,237.84Z"/>
      <path d="M310,185.8v42.74C310,238.7,307,243,296.65,243a15.35,15.35,0,0,1-3.68-.47l.47-5.31a10.82,10.82,0,0,0,3.52.62c5.39,0,7-2.73,7-8V185.8Z"/>
      <path d="M346.12,185.8V191h-19.7v19.22H341v5.16H326.42v21.72h20.63v5.16H320.33V185.8Z"/>
      <path d="M384.25,202.83h-6.09c-.79-8.9-3.6-12.66-8.37-12.66-7.34,0-10.23,6.57-10.23,23.84s2.81,23.83,10.23,23.83c6.26,0,9-4.69,9.15-14.38H385c-.23,13-5.94,19.54-15.24,19.54-11.17,0-16.33-9.38-16.33-29s5.16-29,16.33-29C378.16,185,383.31,190.8,384.25,202.83Z"/>
      <path d="M418.72,185.8V191H407.15v51.26h-6.09V191H389.49V185.8Z"/>
    </g>
    <rect x="326.18" y="71.69" width="75.77" height="6.51"/>
    <g>
      <path d="M394.45,46.54a5.76,5.76,0,0,1,0,2.34,3.31,3.31,0,0,0,0,.55,38.12,38.12,0,0,0,.2,6.6c.73,3.88-1.22,7.64-4.86,8.62a6.83,6.83,0,0,1-8.55-4.83,4.84,4.84,0,0,0-4.55-3.92,6.93,6.93,0,1,1,1.81-13.74,13.48,13.48,0,0,0,6.75-.76A7,7,0,0,1,394.45,46.54Z"/>
      <path d="M357.07,44c-2.38-.4-4,.61-5.17,2.83a6.79,6.79,0,0,1-9.44,2.65c-3.27-1.83-4.3-5.8-2.79-9.33a24.54,24.54,0,0,0,1.85-6.92,7.1,7.1,0,0,1,10.83-5.47,21.3,21.3,0,0,0,6.34,2.33c4,.81,6.56,4,6.1,8C364.36,41.8,361.19,44.28,357.07,44Z"/>
      <path d="M332.84,39.07a7.06,7.06,0,0,1-6.42-5.34,2.89,2.89,0,0,1,3.17-3.68,7.16,7.16,0,0,1,6.3,5.74A2.84,2.84,0,0,1,332.84,39.07Z"/>
      <path d="M355.54,19.25c0-.32,0-.64,0-.95.29-2.12,1.55-3.76,3-4s3.19,1,4,3.22a6.8,6.8,0,0,1-.32,5.89c-1.23,2.15-3.51,2.47-5,.5a10.61,10.61,0,0,1-1.76-4.7Z"/>
      <path d="M405.36,56.69a4.83,4.83,0,0,1-4.42-.25,2.57,2.57,0,0,1-1.08-1,4.5,4.5,0,0,1,.38-3.49,6.81,6.81,0,0,1,7.25-3,2.71,2.71,0,0,1,1.95,3.85A7.4,7.4,0,0,1,405.36,56.69Z"/>
      <path d="M351,18.38c-.09,1.7-.52,3.28-2.33,4-1.38.54-3.19-.43-4.26-2.21a6.69,6.69,0,0,1-.71-6.22,2.87,2.87,0,0,1,4.68-1.3A6.82,6.82,0,0,1,351,18.38Z"/>
      <path d="M384.39,30.77a7.16,7.16,0,0,1-2.62,5.64c-2.22,1.79-4.59.94-5.16-1.85a6.88,6.88,0,0,1,1.52-5.91c1-1.27,2.3-2.35,4.11-1.68S384.32,29.22,384.39,30.77Z"/>
      <path d="M404.06,36.22c2.57,0,3.89,1.8,3,4.21A6.76,6.76,0,0,1,401.16,45c-2.63.33-4.18-1.8-3.29-4.35A7.12,7.12,0,0,1,404.06,36.22Z"/>
      <path d="M388.54,33.5A6.79,6.79,0,0,1,393,27.36a2.79,2.79,0,0,1,3.7,2c.81,2.82-1.25,6.74-4,7.63C390.25,37.78,388.48,36.25,388.54,33.5Z"/>
      <path d="M331.31,21.61a2.82,2.82,0,0,1,3.43-3.07,6.71,6.71,0,0,1,5.43,6.85,2.75,2.75,0,0,1-3,2.53C334.24,27.86,331.3,24.67,331.31,21.61Z"/>
    </g>
  </g>
</svg>
