<svg id="Layer_1" data-name="Layer 1" xmlns="http://www.w3.org/2000/svg" viewBox="0 0 100 100">
  <defs>
    <style>
      .cls-1 {
        fill: #f37;
      }
    </style>
  </defs>
  <title>Turnaround time</title>
  <g>
    <path class="cls-1" d="M52.21,60.79a4.81,4.81,0,0,0,3.51-2L68.36,41.34a1.35,1.35,0,0,0-1.88-1.88L49,52.1a4.81,4.81,0,0,0,2.83,8.7Z"/>
    <path class="cls-1" d="M81.19,28.52a1.64,1.64,0,0,0,2.33,0l4.81-4.8a1.67,1.67,0,0,0,0-2.34l-4.81-4.81a1.65,1.65,0,0,0-2.33,0l-4.81,4.81a1.65,1.65,0,0,0,0,2.34l.74.74L75.6,26a36.72,36.72,0,0,0-5.85-4.24,1.06,1.06,0,0,0-.18-.13l-.19-.09a37.2,37.2,0,0,0-11.75-4.3,4.38,4.38,0,0,0,3.85-5A4.49,4.49,0,0,0,57,8.5H45.21a4.53,4.53,0,0,0-4.56,3.86,4.38,4.38,0,0,0,3.62,4.83c-.62.11-1.23.23-1.83.37a2.35,2.35,0,0,0-.72,4.28,2.36,2.36,0,0,0,1.77.3,31,31,0,0,1,3.61-.62l1.45-.11.17.15v1.3a2.45,2.45,0,0,0,2.1,2.48A2.36,2.36,0,0,0,53.42,23V21.4a32.31,32.31,0,0,1,11.72,3.19l-.67,1.16a2.68,2.68,0,0,0-.16,2.46,2.34,2.34,0,0,0,4.1.13l.8-1.39a33.29,33.29,0,0,1,8.73,8.74l-1.18.68a2.64,2.64,0,0,0-1.34,2,2.35,2.35,0,0,0,3.5,2.15l1.39-.8a32.35,32.35,0,0,1,3.2,11.94H82a2.45,2.45,0,0,0-2.48,2.1,2.36,2.36,0,0,0,2.34,2.6h1.61a32.4,32.4,0,0,1-3.2,11.94l-1.39-.8a2.35,2.35,0,0,0-3.35,1.12,2.44,2.44,0,0,0,1.11,3L78,72.4a33.18,33.18,0,0,1-8.74,8.74l-.8-1.38a2.35,2.35,0,0,0-4.07,2.35l.8,1.39a32.11,32.11,0,0,1-11.72,3.19V85.24a2.45,2.45,0,0,0-2.1-2.48,2.36,2.36,0,0,0-2.6,2.34v1.62A32.86,32.86,0,0,1,43.51,86,2.35,2.35,0,0,0,41,89.5a2.37,2.37,0,0,0,1.47,1,37.26,37.26,0,0,0,8.4,1h.42a37.47,37.47,0,0,0,18.11-4.91l.21-.11.16-.11A37.79,37.79,0,0,0,83.16,73a.88.88,0,0,0,.12-.17l.1-.21a37.31,37.31,0,0,0,0-37.07,1.54,1.54,0,0,0-.09-.19l-.11-.17a38.17,38.17,0,0,0-4.24-5.84l1.52-1.52ZM55.86,15H46.54a2,2,0,0,1-2-2,2,2,0,0,1,.59-1.41A2,2,0,0,1,46.54,11h9.32a2,2,0,1,1,0,4Zm24.21,6.9,1.86-1.86a.81.81,0,0,1,1.14,0l1.86,1.86a.81.81,0,0,1,0,1.14l-1.86,1.86a.81.81,0,0,1-1.14,0l-1.86-1.86A.81.81,0,0,1,80.07,21.93Z"/>
    <path class="cls-1" d="M32.17,32.1h6.75a2.35,2.35,0,0,0,0-4.7H32.17a2.35,2.35,0,0,0,0,4.7Z"/>
    <path class="cls-1" d="M25.42,41.55h13.5a2.35,2.35,0,0,0,0-4.7H25.42a2.35,2.35,0,0,0,0,4.7Z"/>
    <path class="cls-1" d="M18.67,51H38.92a2.35,2.35,0,0,0,0-4.7H18.67a2.35,2.35,0,0,0,0,4.7Z"/>
    <path class="cls-1" d="M41.27,58.1a2.35,2.35,0,0,0-2.35-2.35H13.27a2.35,2.35,0,1,0,0,4.7H38.92A2.35,2.35,0,0,0,41.27,58.1Z"/>
    <path class="cls-1" d="M41.27,67.55a2.35,2.35,0,0,0-2.35-2.35H21.37a2.35,2.35,0,1,0,0,4.7H38.92A2.35,2.35,0,0,0,41.27,67.55Z"/>
    <path class="cls-1" d="M38.92,74.65H29.47a2.35,2.35,0,0,0,0,4.7h9.45a2.35,2.35,0,1,0,0-4.7Z"/>
  </g>
</svg>
