<svg id="Layer_1" data-name="Layer 1" xmlns="http://www.w3.org/2000/svg" viewBox="0 0 100 100">
  <defs>
    <style>
      .cls-1 {
        fill: #fff;
      }
    </style>
  </defs>
  <title>Twitter_Footer</title>
  <path class="cls-1" d="M91.91,24A34.5,34.5,0,0,1,82,26.71a17.18,17.18,0,0,0,7.56-9.51,34.36,34.36,0,0,1-10.92,4.17A17.2,17.2,0,0,0,48.93,33.14a17.45,17.45,0,0,0,.44,3.92,48.84,48.84,0,0,1-35.44-18,17.21,17.21,0,0,0,5.32,23,17.12,17.12,0,0,1-7.79-2.15v.21A17.21,17.21,0,0,0,25.25,57a16.91,16.91,0,0,1-4.53.61,17.25,17.25,0,0,1-3.23-.31A17.22,17.22,0,0,0,33.55,69.21,34.5,34.5,0,0,1,12.2,76.57a34.89,34.89,0,0,1-4.11-.24,48.67,48.67,0,0,0,26.36,7.73c31.63,0,48.93-26.21,48.93-48.93,0-.74,0-1.49,0-2.22A35.24,35.24,0,0,0,91.91,24Z"/>
</svg>
