<svg id="Layer_1" data-name="Layer 1" xmlns="http://www.w3.org/2000/svg" viewBox="0 0 100 100">
  <defs>
    <style>
      .cls-1 {
        fill: #f37;
      }
    </style>
  </defs>
  <title>Unlimited</title>
  <path class="cls-1" d="M80.82,19.15a21.28,21.28,0,0,0-30.07,0c-6.22,6.22-5.14,20.18-4,27.6-7.41-1.11-21.35-2.18-27.55,4A21.26,21.26,0,0,0,49.25,80.85c6.22-6.22,5.14-20.18,4-27.6,7.41,1.11,21.35,2.18,27.55-4A21.29,21.29,0,0,0,80.82,19.15ZM52.25,47.72c-1.57-9.1-1.88-20.7,2.24-24.83A16,16,0,0,1,77.08,45.48C73,49.6,61.35,49.28,52.25,47.72ZM36,51.2a71.89,71.89,0,0,1,11.79,1.08c1.58,9.1,1.89,20.71-2.23,24.83A16,16,0,0,1,22.92,54.52C25.35,52.09,30.37,51.2,36,51.2Z"/>
</svg>
