<svg id="Layer_1" data-name="Layer 1" xmlns="http://www.w3.org/2000/svg" viewBox="0 0 600 250">
  <title>wireflo</title>
  <g>
    <polygon points="189.5 134.07 180.06 103.29 169.57 103.29 160.13 134.19 150.03 103.3 135 103.29 155.38 163.71 165.3 163.71 174.75 132.54 184.34 163.71 194.25 163.71 214.63 103.29 199.44 103.3 189.5 134.07"/>
    <path d="M267.41,102.52a11.93,11.93,0,0,0-4.63.58c-1.53.62-4,3.26-4,8.57v-8.38H244.9v60.42h14.4V128c0-4.92,1-7.13,1.87-8.11,1.19-1.38,3.42-2.23,6.63-2.52l3.45-.31-.1-14.56Z"/>
    <path d="M305.9,102.76c-8.81,0-16.15,2.92-21.83,8.69s-8.53,13-8.53,21.71a29.93,29.93,0,0,0,8.72,21.52,28.79,28.79,0,0,0,21.36,9,28.4,28.4,0,0,0,16.86-5.23A32.25,32.25,0,0,0,333,145.19H316.86a14.83,14.83,0,0,1-3.09,2.65,15,15,0,0,1-8.33,2.38,15.24,15.24,0,0,1-11-4.16,15.66,15.66,0,0,1-3.59-4.81,13.5,13.5,0,0,1-.85-2.38h45.51v-4.09c0-9.29-2.77-17-8.24-23S314.5,102.76,305.9,102.76Zm-15.22,23.36a14.75,14.75,0,0,1,4.12-6.21l0,0a13.58,13.58,0,0,1,4.54-2.79,16.1,16.1,0,0,1,5.56-.94c4.4,0,7.85,1.14,10.52,3.48a16.45,16.45,0,0,1,4.35,6.49Z"/>
    <path d="M353.54,89.53c-3.12,3-4.75,6-4.75,19.44H342v13.28h7v41.46H363V122.25h10.93V109H363.11c0-4.86.25-7.52.73-8.16s1.18-1,6.32-1h3.72V86.29h-4.34C359.52,86.29,357.05,86.19,353.54,89.53Z"/>
    <rect x="382.77" y="86.29" width="14.29" height="77.42"/>
    <path d="M456.15,111.6a29.17,29.17,0,0,0-21.31-8.84,27.92,27.92,0,0,0-20.7,9,30.11,30.11,0,0,0-8.67,21.59,29.74,29.74,0,0,0,8.65,21.39,28.58,28.58,0,0,0,21.23,9,28.1,28.1,0,0,0,21.06-9.14A30.77,30.77,0,0,0,465,132.73,29,29,0,0,0,456.15,111.6Zm-9.73,33.9a14.37,14.37,0,0,1-11.07,4.77,14.64,14.64,0,0,1-11.26-4.8,18.55,18.55,0,0,1,0-24.43,14,14,0,0,1,10.64-4.8,15.34,15.34,0,0,1,11.65,4.68c3.07,3.19,4.56,7.2,4.56,12.27A17.19,17.19,0,0,1,446.42,145.5Z"/>
    <rect x="220.5" y="103.29" width="14.53" height="60.42"/>
  </g>
</svg>
